<?xml version="1.0" encoding="UTF-8" standalone="no"?>
<!-- Created with Inkscape (http://www.inkscape.org/) -->

<svg
   xmlns:dc="http://purl.org/dc/elements/1.1/"
   xmlns:cc="http://creativecommons.org/ns#"
   xmlns:rdf="http://www.w3.org/1999/02/22-rdf-syntax-ns#"
   xmlns:svg="http://www.w3.org/2000/svg"
   xmlns="http://www.w3.org/2000/svg"
   xmlns:xlink="http://www.w3.org/1999/xlink"
   xmlns:sodipodi="http://sodipodi.sourceforge.net/DTD/sodipodi-0.dtd"
   xmlns:inkscape="http://www.inkscape.org/namespaces/inkscape"
   width="1024"
   height="1024"
   viewBox="0 0 270.93333 270.93334"
   version="1.1"
   id="svg8"
   inkscape:version="0.92.5 (2060ec1f9f, 2020-04-08)"
   sodipodi:docname="logo.svg">
  <defs
     id="defs2">
    <linearGradient
       id="linearGradient18400"
       inkscape:collect="always">
      <stop
         id="stop18394"
         offset="0"
         style="stop-color:#ee1500;stop-opacity:1" />
      <stop
         style="stop-color:#c824ae;stop-opacity:1"
         offset="0.18499646"
         id="stop835" />
      <stop
         style="stop-color:#a235f2;stop-opacity:1"
         offset="0.42743382"
         id="stop18396" />
      <stop
         id="stop18402"
         offset="0.5783059"
         style="stop-color:#a235f2;stop-opacity:1" />
      <stop
         style="stop-color:#bf29d6;stop-opacity:1;"
         offset="0.80081314"
         id="stop837" />
      <stop
         id="stop18398"
         offset="1"
         style="stop-color:#e21cb6;stop-opacity:1" />
    </linearGradient>
    <linearGradient
       id="linearGradient18384"
       inkscape:collect="always">
      <stop
         id="stop18378"
         offset="0"
         style="stop-color:#ffff07;stop-opacity:0.76078433" />
      <stop
         style="stop-color:#ff963e;stop-opacity:1"
         offset="0.27901161"
         id="stop18380" />
      <stop
         id="stop18382"
         offset="1"
         style="stop-color:#ffc84b;stop-opacity:0" />
    </linearGradient>
    <linearGradient
       inkscape:collect="always"
       id="linearGradient1819">
      <stop
         style="stop-color:#ee0000;stop-opacity:1"
         offset="0"
         id="stop1815" />
      <stop
         id="stop18404"
         offset="0.39681908"
         style="stop-color:#d329b6;stop-opacity:1" />
      <stop
         id="stop893"
         offset="0.67253989"
         style="stop-color:#a235f2;stop-opacity:1" />
      <stop
         style="stop-color:#e21cb6;stop-opacity:1"
         offset="1"
         id="stop1817" />
    </linearGradient>
    <linearGradient
       inkscape:collect="always"
       xlink:href="#linearGradient18400"
       id="linearGradient866"
       x1="-976.20636"
       y1="-233.88538"
       x2="-709.00281"
       y2="32.920513"
       gradientUnits="userSpaceOnUse"
       gradientTransform="matrix(1.0372958,0,0,1.0367103,1012.3435,268.3468)" />
    <radialGradient
       inkscape:collect="always"
       xlink:href="#linearGradient18384"
       id="radialGradient18376"
       cx="-882.4184"
       cy="-352.73575"
       fx="-882.4184"
       fy="-352.73575"
       r="113.52685"
       gradientTransform="matrix(0.99006323,-0.67092822,0.7108225,1.0477499,1240.838,19.615049)"
       gradientUnits="userSpaceOnUse" />
    <linearGradient
       inkscape:collect="always"
       xlink:href="#linearGradient1819"
       id="linearGradient18408"
       gradientUnits="userSpaceOnUse"
       x1="-766.39557"
       y1="-109.24919"
       x2="-933.34753"
       y2="-240.92798"
       gradientTransform="matrix(1.0372958,0,0,1.0367103,1012.3435,268.3468)" />
  </defs>
  <sodipodi:namedview
     id="base"
     pagecolor="#ffffff"
     bordercolor="#666666"
     borderopacity="1.0"
     inkscape:pageopacity="0.0"
     inkscape:pageshadow="2"
     inkscape:zoom="0.90509668"
     inkscape:cx="294.75936"
     inkscape:cy="496.77518"
     inkscape:document-units="px"
     inkscape:current-layer="layer1"
     showgrid="false"
     inkscape:showpageshadow="true"
     showborder="true"
     units="px"
     inkscape:window-width="2492"
     inkscape:window-height="1380"
     inkscape:window-x="0"
     inkscape:window-y="28"
     inkscape:window-maximized="1"
     inkscape:snap-bbox="false"
     inkscape:snap-bbox-midpoints="false"
     inkscape:snap-others="true"
     inkscape:snap-object-midpoints="true"
     inkscape:snap-center="true"
     inkscape:pagecheckerboard="false"
     fit-margin-top="0"
     fit-margin-left="0"
     fit-margin-right="0"
     fit-margin-bottom="0" />
  <metadata
     id="metadata5">
    <rdf:RDF>
      <cc:Work
         rdf:about="">
        <dc:format>image/svg+xml</dc:format>
        <dc:type
           rdf:resource="http://purl.org/dc/dcmitype/StillImage" />
        <dc:title></dc:title>
      </cc:Work>
    </rdf:RDF>
  </metadata>
  <g
     inkscape:label="Layer 1"
     inkscape:groupmode="layer"
     id="layer1"
     transform="translate(-0.34691817,-25.908834)">
    <circle
       style="opacity:0.49500002;fill:#de5a21;fill-opacity:1;stroke:none;stroke-width:1.01096725;stroke-linecap:round;stroke-linejoin:miter;stroke-miterlimit:4;stroke-dasharray:none;stroke-opacity:1;paint-order:normal"
       id="path978-2"
       cx="-535.12079"
       cy="-44.233006"
       r="0"
       inkscape:export-filename="/media/nfs/HQ505/NAS/AppKidDemoIcon3.png"
       inkscape:export-xdpi="96"
       inkscape:export-ydpi="96" />
    <path
       style="opacity:1;fill:url(#linearGradient18408);fill-opacity:1;stroke:none;stroke-width:1.46369505;stroke-linecap:round;stroke-linejoin:miter;stroke-miterlimit:4;stroke-dasharray:none;stroke-opacity:1;paint-order:normal"
       d="m 241.4673,43.683243 c 0.40277,-1.11e-4 0.80532,0.0199 1.20609,0.06002 -0.39666,-0.0393 -0.79908,-0.06002 -1.20609,-0.06002 z m 0,0 c -0.2607,0 -0.51849,0.01106 -0.77512,0.02737 0.25802,-0.01739 0.51652,-0.02654 0.77512,-0.02737 z m 1.20609,0.06002 c 2.00892,0.201598 3.9352,0.903366 5.60266,2.041161 -1.62617,-1.111715 -3.53757,-1.836507 -5.60266,-2.041161 z m -212.5431,-0.02785 c 0.402783,6e-5 0.805305,0.0203 1.206068,0.06053 -0.39664,-0.0393 -0.799082,-0.06053 -1.206068,-0.06053 z m 0,0 c -0.260359,0 -0.517811,0.01156 -0.774048,0.02785 0.257654,-0.0175 0.515801,-0.02684 0.774048,-0.02785 z m 1.206068,0.06053 c 2.008929,0.201575 3.935214,0.903375 5.602669,2.041159 -1.626213,-1.111714 -3.537569,-1.836516 -5.602669,-2.041159 z M 240.5421,43.721864 c -0.37091,0.02815 -0.737,0.07208 -1.09781,0.132856 0.3637,-0.06103 0.73003,-0.105348 1.09781,-0.132856 z m -211.33702,0.03268 c -0.370931,0.02815 -0.737018,0.07208 -1.097805,0.132867 0.363703,-0.06103 0.730031,-0.105347 1.097805,-0.132867 z m 210.17276,0.111968 c -0.38293,0.06676 -0.75982,0.151434 -1.12944,0.253403 0.37221,-0.102432 0.74913,-0.187026 1.12944,-0.253403 z m -211.337043,0.03268 c -0.382936,0.06676 -0.75979,0.151444 -1.129415,0.253403 0.372199,-0.102442 0.749103,-0.187016 1.129415,-0.253403 z m 210.182943,0.227665 c -0.38554,0.107238 -0.76261,0.233136 -1.13157,0.376618 0.37075,-0.144096 0.74841,-0.269781 1.13157,-0.376618 z m -211.337041,0.03268 c -0.382826,0.106474 -0.757548,0.231175 -1.124056,0.373411 0.368357,-0.142779 0.743483,-0.267401 1.124056,-0.373411 z m 210.204401,0.34448 c -0.369,0.143522 -0.72926,0.304448 -1.0796,0.482155 0.35178,-0.178229 0.71207,-0.339156 1.0796,-0.482155 z m -211.34562,0.0359 c -0.367343,0.143211 -0.725888,0.303424 -1.074742,0.480558 0.350222,-0.177567 0.708897,-0.33794 1.074742,-0.480558 z m 210.22208,0.468767 c -0.33861,0.173505 -0.66773,0.362151 -0.98684,0.565727 0.31988,-0.203968 0.64919,-0.392745 0.98684,-0.565727 z m -211.332745,0.02996 c -0.340136,0.174108 -0.670652,0.363949 -0.991132,0.568412 0.321214,-0.204995 0.651961,-0.394686 0.991132,-0.568412 z m 210.273005,0.58233 c -0.30876,0.200096 -0.60727,0.414059 -0.89571,0.64074 0.28866,-0.227084 0.58755,-0.440894 0.89571,-0.64074 z M 23.57079,45.65365 c -0.309773,0.200771 -0.609614,0.415366 -0.898937,0.642872 0.289665,-0.227898 0.589627,-0.442403 0.898937,-0.642872 z m 224.73583,0.152669 c 0.31511,0.216686 0.61972,0.448212 0.91285,0.693794 -0.29278,-0.24532 -0.59742,-0.476706 -0.91285,-0.693794 z m -211.337039,0.03268 c 0.315103,0.216677 0.619749,0.448223 0.912862,0.693794 -0.292762,-0.24532 -0.597448,-0.476705 -0.912862,-0.693794 z m 196.952449,0.493415 c -0.28165,0.225656 -0.55247,0.46406 -0.81262,0.713604 0.26007,-0.249877 0.53121,-0.487988 0.81262,-0.713604 z m -211.333816,0.02996 c -0.28289,0.226487 -0.554599,0.465705 -0.815822,0.716275 0.261052,-0.250862 0.533283,-0.489858 0.815822,-0.716275 z m 226.702546,0.19929 c 0.2785,0.236684 0.54609,0.485874 0.80193,0.746809 -0.25577,-0.260935 -0.52348,-0.509834 -0.80193,-0.746809 z m -211.337023,0.03268 c 0.278476,0.236684 0.546053,0.485877 0.801907,0.746821 -0.255753,-0.260954 -0.523471,-0.509835 -0.801907,-0.746821 z m 97.565763,0.06324 c 30.98021,5.83e-4 60.64172,12.530612 82.23081,34.737049 C 196.91655,59.969646 167.77377,46.657607 135.5195,46.657588 Z m 0,0 c -31.04851,9e-6 -59.213334,12.335419 -79.859368,32.368554 C 77.055913,58.268716 105.70113,46.658269 135.5195,46.657576 Z m 97.49986,0.474122 c -0.26108,0.255625 -0.51013,0.523176 -0.74725,0.801455 0.23681,-0.278319 0.48616,-0.545739 0.74725,-0.801455 z m -211.337043,0.03268 c -0.26108,0.255617 -0.510119,0.523188 -0.747221,0.801467 0.236811,-0.278319 0.486141,-0.545759 0.747221,-0.801467 z m 228.496133,0.234099 c 0.25002,0.25994 0.48826,0.530938 0.714,0.812194 -0.22577,-0.281496 -0.46433,-0.552184 -0.714,-0.812194 z m -211.337036,0.03266 c 0.250024,0.25993 0.488262,0.530929 0.714015,0.812183 -0.225793,-0.281486 -0.464332,-0.552171 -0.714015,-0.812183 z m 193.369056,0.573227 c -0.24544,0.292637 -0.47693,0.597095 -0.69416,0.912362 0.2168,-0.314935 0.44846,-0.619394 0.69416,-0.912362 z m -211.337006,0.03268 c -0.245478,0.292637 -0.476982,0.597095 -0.694178,0.912362 0.216804,-0.314935 0.448468,-0.619394 0.694178,-0.912362 z M 250.9632,48.300656 c 0.22845,0.290182 0.44345,0.590681 0.64433,0.900569 -0.2012,-0.310451 -0.41623,-0.610638 -0.64433,-0.900569 z m -211.337021,0.03268 c 0.228437,0.290183 0.443442,0.590679 0.644301,0.900559 -0.201201,-0.310431 -0.416236,-0.610638 -0.644301,-0.900559 z m 191.868141,0.613943 c -1.11233,1.625291 -1.83753,3.535575 -2.0423,5.599505 0.2017,-2.007787 0.90386,-3.932993 2.0423,-5.599505 z m -2.0423,5.599505 c -0.0393,0.396426 -0.0607,0.798631 -0.0607,1.205401 6e-5,-0.402559 0.0203,-0.804853 0.0607,-1.205401 z m -0.0607,1.205401 c 0,0.2602 0.0117,0.517505 0.0279,0.773606 -0.0175,-0.257507 -0.0268,-0.515507 -0.0279,-0.773606 z M 20.157257,48.97997 c -1.112344,1.62529 -1.837558,3.535565 -2.042297,5.599505 0.201692,-2.007788 0.903873,-3.932984 2.042297,-5.599505 z m -2.042297,5.599505 c -0.03931,0.396426 -0.06063,0.798098 -0.06063,1.204878 9e-5,-0.402386 0.02031,-0.804511 0.06063,-1.204878 z m -0.06063,1.204878 c 0,0.260192 0.01166,0.518029 0.02776,0.774127 -0.0175,-0.257686 -0.02685,-0.515847 -0.02776,-0.774127 z m 233.59381,-6.519911 c 0.20513,0.321049 0.39492,0.651608 0.56877,0.990583 -0.17437,-0.339921 -0.36401,-0.670309 -0.56877,-0.990583 z m -211.337003,0.03267 c 0.205103,0.321027 0.394882,0.651608 0.568716,0.990571 -0.174358,-0.33991 -0.363976,-0.670318 -0.568716,-0.990571 z M 252.2394,50.298937 c 0.17726,0.349511 0.33736,0.707448 0.47977,1.072535 -0.14299,-0.366524 -0.30296,-0.724421 -0.47977,-1.072535 z m -211.337007,0.03268 c 0.177234,0.349532 0.337333,0.707479 0.479737,1.072563 -0.142968,-0.366544 -0.302968,-0.72443 -0.479737,-1.072563 z m 211.822127,1.052726 c 0.14452,0.372295 0.27046,0.751525 0.37736,1.136289 -0.10739,-0.387095 -0.23334,-0.765865 -0.37736,-1.136289 z m -211.337011,0.03268 c 0.144517,0.372296 0.270472,0.751527 0.377366,1.136308 -0.107416,-0.387115 -0.233383,-0.765873 -0.377366,-1.136308 z M 253.1035,52.525475 c 0.1038,0.375824 0.18931,0.756473 0.25623,1.14058 -0.0676,-0.386781 -0.15286,-0.767401 -0.25623,-1.14058 z m -211.337026,0.03268 c 0.103798,0.375833 0.189296,0.756482 0.256225,1.14058 -0.06746,-0.386773 -0.152851,-0.767391 -0.256225,-1.14058 z m 211.604516,1.170588 c 0.0614,0.363849 0.1058,0.730311 0.13346,1.098242 -0.0281,-0.371078 -0.0726,-0.737299 -0.13346,-1.098242 z m -211.337029,0.03268 c 0.06133,0.36385 0.105808,0.730332 0.133476,1.098262 -0.02824,-0.371096 -0.07249,-0.737309 -0.133476,-1.098262 z m 211.481749,1.215572 c 0.0174,0.258049 0.0265,0.516582 0.0273,0.775213 0,-0.260562 -0.011,-0.518761 -0.0273,-0.775213 z m 0.0273,0.775213 c 9e-5,0.402368 -0.0199,0.804493 -0.06,1.204868 0.0392,-0.396434 0.06,-0.798096 0.06,-1.204868 z m -0.06,1.204868 c -0.20169,2.00779 -0.90386,3.932984 -2.04231,5.599496 1.11233,-1.62529 1.83756,-3.535574 2.04231,-5.599496 z M 42.178598,55.009673 c 0.0174,0.257867 0.02644,0.516229 0.02725,0.77468 0,-0.260562 -0.01106,-0.518229 -0.02725,-0.77468 z m 0.02725,0.77468 c 1.01e-4,0.402548 -0.0199,0.804844 -0.06002,1.205401 0.0393,-0.396425 0.06002,-0.798651 0.06002,-1.205401 z m -0.06002,1.205401 c -0.201944,2.00997 -0.905454,3.937145 -2.046049,5.604864 1.114415,-1.626466 1.841078,-3.538651 2.046049,-5.604864 z M 229.43032,56.676878 c 0.0282,0.370707 0.0722,0.736595 0.13293,1.097177 -0.0612,-0.363496 -0.1054,-0.729609 -0.13293,-1.097177 z M 18.093303,56.70956 c 0.02815,0.370716 0.07199,0.736596 0.132913,1.097187 -0.06113,-0.363506 -0.105396,-0.729617 -0.132913,-1.097187 z m 211.481767,1.130938 c 0.0669,0.382732 0.15151,0.759378 0.25354,1.128797 -0.10249,-0.371992 -0.18715,-0.748691 -0.25354,-1.128797 z m -211.33705,0.03268 c 0.06695,0.382709 0.151524,0.759358 0.253541,1.128776 -0.10248,-0.371992 -0.187135,-0.748691 -0.253541,-1.128776 z m 211.59755,1.120743 c 0.10647,0.382297 0.23092,0.756371 0.37306,1.122372 -0.14264,-0.367811 -0.26713,-0.742387 -0.37306,-1.122372 z m -211.337041,0.03268 c 0.106462,0.382297 0.230931,0.756363 0.373095,1.122362 -0.142647,-0.367812 -0.267155,-0.742377 -0.373095,-1.122362 z m 211.718121,1.109503 c 0.14314,0.366544 0.3034,0.724431 0.48031,1.072533 -0.17742,-0.3495 -0.33771,-0.707436 -0.48031,-1.072533 z m -211.336994,0.03268 c 0.143128,0.366543 0.30335,0.724441 0.48029,1.072544 -0.177433,-0.349511 -0.337714,-0.707439 -0.48029,-1.072544 z m 211.835544,1.07576 c 0.17421,0.339949 0.36416,0.670279 0.56874,0.990583 -0.20512,-0.321049 -0.3949,-0.651609 -0.56874,-0.990583 z m -211.337026,0.03266 c 0.17499,0.341449 0.365794,0.673225 0.571399,0.994847 -0.206137,-0.322377 -0.396822,-0.654364 -0.571399,-0.994847 z m 211.952386,1.030749 c 0.20024,0.308593 0.41431,0.606929 0.64111,0.89522 -0.22722,-0.288512 -0.44114,-0.58721 -0.64111,-0.89522 z m -211.340219,0.02737 c 0.20119,0.310431 0.416225,0.610636 0.644291,0.900568 C 20.406194,62.945697 20.19121,62.6452 19.990341,62.335323 Z m 231.428219,0.251794 c -0.21677,0.314926 -0.44843,0.619396 -0.69416,0.912353 0.24545,-0.292625 0.47698,-0.597106 0.69416,-0.912353 z m -211.329515,0.02201 c -0.218957,0.318746 -0.453123,0.626785 -0.701678,0.92306 0.248263,-0.295952 0.48234,-0.603963 0.701678,-0.92306 z m 191.953385,0.684117 c 0.22579,0.281485 0.46432,0.552174 0.71402,0.812173 -0.25002,-0.259928 -0.48827,-0.530919 -0.71402,-0.812173 z m -211.33704,0.03268 c 0.225784,0.281496 0.464345,0.552173 0.714016,0.812173 -0.250022,-0.25993 -0.488272,-0.530919 -0.714016,-0.812173 z m 229.95737,0.244829 c -0.23682,0.278321 -0.48615,0.54574 -0.74726,0.801446 0.26113,-0.255616 0.51013,-0.523176 0.74726,-0.801446 z m -211.337034,0.03268 c -0.236811,0.27831 -0.486141,0.545739 -0.747224,0.801446 0.261093,-0.255627 0.510131,-0.523198 0.747224,-0.801446 z m 193.516484,0.591976 c 0.25575,0.260956 0.52346,0.509836 0.80188,0.746822 -0.27846,-0.236684 -0.54605,-0.485876 -0.80188,-0.746822 z m -211.337043,0.03268 c 0.257352,0.262554 0.526457,0.512822 0.806723,0.751105 -0.280216,-0.23796 -0.549401,-0.488591 -0.806723,-0.751105 z m 228.320293,0.229838 c -0.26007,0.249886 -0.53122,0.487988 -0.81262,0.713603 0.28164,-0.225655 0.55246,-0.464058 0.81262,-0.713603 z m -211.337002,0.03266 c -0.260076,0.249875 -0.531243,0.487978 -0.812654,0.713591 0.281643,-0.225643 0.552497,-0.464057 0.812654,-0.713591 z M 233.7154,65.00383 c 0.29278,0.245322 0.59742,0.476687 0.91288,0.693776 -0.31512,-0.216686 -0.61974,-0.448204 -0.91288,-0.693776 z M 22.375149,65.03379 c 0.293698,0.246228 0.599591,0.478638 0.916101,0.696461 -0.316269,-0.217471 -0.621981,-0.449882 -0.916101,-0.696461 z m 226.547631,0.208399 c -0.29032,0.228309 -0.59102,0.443197 -0.90108,0.643948 0.3106,-0.201074 0.61101,-0.41599 0.90108,-0.643948 z m -211.337019,0.03268 c -0.290349,0.22831 -0.591025,0.443186 -0.90108,0.643957 0.310619,-0.201093 0.610971,-0.416 0.90108,-0.643957 z m 100.572409,0.10768 c -0.70631,-0.002 -1.4129,0.005 -2.11949,0.02252 -13.41922,0.359172 -26.11761,4.116752 -34.9727,10.348795 -4.387008,2.233413 -7.715805,5.867893 -9.69798,10.587722 -1.252005,2.405965 -1.698584,4.891892 -1.889539,7.394766 h 1e-5 c -1.026212,9.112228 2.341586,19.542988 8.55944,29.392028 1.791946,2.7915 3.547229,5.4707 5.604269,8.22567 l -0.0156,0.0161 3.98756,4.78788 h 0.0343 c 0.39323,0.48401 0.86777,0.75381 1.35187,0.70501 l 0.0106,0.006 0.0103,-0.008 c 0.0321,-0.004 0.0643,-0.004 0.0954,-0.0106 0.46036,-0.093 0.84241,-0.46359 1.10961,-1.00289 l 0.81531,-0.80253 -0.0515,-0.061 c 3.41551,-3.22108 7.42772,-5.74515 11.81051,-7.43066 v -0.0199 c 4.04711,-1.53812 8.33678,-2.33815 12.66656,-2.36204 5.48832,0.0224 10.90026,1.29176 15.82541,3.7121 0.40633,0.41466 0.96248,0.64849 1.54328,0.64878 0.87466,-3e-4 1.66291,-0.52763 1.99674,-1.33559 9.2565,-10.15743 21.34951,-17.30533 34.71487,-20.5192 2.90667,-0.49361 5.49706,-1.51513 7.4257,-2.92833 0.23504,-0.17232 0.45783,-0.35095 0.66791,-0.53572 0.1117,-0.0936 0.22031,-0.18876 0.32592,-0.28502 0.13754,-0.11328 0.27013,-0.22901 0.39773,-0.34715 v 0 c 1.39754,-1.38571 2.18603,-3.21403 2.19133,-5.181591 0,-1.06598 -0.23793,-2.118567 -0.68615,-3.085824 h -0.0788 C 197.06477,87.5408 185.47358,78.438968 170.39596,72.232272 c -7.1368,-2.933704 -14.57504,-5.015553 -21.43665,-5.99969 v -0.03478 c -3.52381,-0.521496 -7.14652,-0.794909 -10.79625,-0.814815 z m 96.50064,0.336984 c 1.62622,1.111704 3.53758,1.836518 5.60268,2.041149 -2.00891,-0.201585 -3.93521,-0.903363 -5.60268,-2.041149 z m 5.60268,2.041149 c 0.39665,0.0393 0.79856,0.06052 1.20554,0.06052 -0.40259,-9e-5 -0.80495,-0.02031 -1.20554,-0.06052 z m 1.20554,0.06052 c 0.26034,0 0.51833,-0.01156 0.77458,-0.02787 -0.25784,0.01749 -0.51617,0.02686 -0.77458,0.02787 z M 23.321784,65.752188 c 1.626233,1.111694 3.537578,1.836516 5.60268,2.041148 -2.008921,-0.201574 -3.935205,-0.903352 -5.60268,-2.041148 z m 5.60268,2.041148 c 0.39663,0.0393 0.798538,0.06002 1.205555,0.06002 -0.402603,9e-5 -0.804955,-0.0199 -1.205555,-0.06002 z m 1.205555,0.06002 c 0.2607,0 0.519047,-0.01106 0.775655,-0.02735 -0.258196,0.01739 -0.516876,0.02655 -0.775655,0.02735 z M 247.95845,65.926848 c -0.32121,0.204994 -0.65196,0.394674 -0.99112,0.568419 0.34009,-0.174277 0.67067,-0.363786 0.99112,-0.568419 z M 36.621421,65.95953 c -0.321225,0.205014 -0.65197,0.394695 -0.991131,0.56843 0.340095,-0.174277 0.670701,-0.363777 0.991131,-0.56843 z m 210.301959,0.558247 c -0.34853,0.17666 -0.70541,0.336328 -1.06941,0.478415 0.36543,-0.142528 0.72227,-0.302338 1.06941,-0.478415 z m -211.337067,0.03268 c -0.349699,0.177143 -0.707832,0.337174 -1.073113,0.479481 0.366738,-0.142889 0.724812,-0.30279 1.073113,-0.479481 z M 245.83411,67.00423 c -0.368,0.142557 -0.74279,0.266997 -1.12298,0.372867 0.38253,-0.106393 0.75679,-0.230782 1.12298,-0.372867 z M 34.50032,67.03529 c -0.369041,0.143212 -0.74489,0.268184 -1.126208,0.374487 0.383619,-0.106705 0.758995,-0.231879 1.126208,-0.374487 z m 210.18616,0.34878 c -0.37308,0.10253 -0.75089,0.187106 -1.13212,0.253402 0.38383,-0.06687 0.76166,-0.151214 1.13212,-0.253402 z M 33.349439,67.41674 c -0.373084,0.102544 -0.750893,0.187118 -1.13211,0.253404 0.383841,-0.06687 0.76166,-0.151203 1.13211,-0.253404 z m 210.142211,0.23198 c -0.36405,0.06133 -0.73074,0.105758 -1.09886,0.133408 0.3713,-0.02826 0.73771,-0.07248 1.09886,-0.133408 z M 32.154613,67.6814 c -0.364066,0.06123 -0.730736,0.105739 -1.098873,0.133399 0.371304,-0.02826 0.737722,-0.07248 1.098873,-0.133399 z M 55.617534,79.06738 C 34.180451,99.889412 20.860876,129.0152 20.860846,161.25124 20.861641,130.28871 33.398784,100.64416 55.617705,79.067408 Z m -34.756688,82.18386 c 3e-5,31.03105 12.342428,59.18048 32.38684,79.81488 C 32.478431,219.68227 20.861389,191.05301 20.860846,161.25123 Z M 217.79134,81.436911 c 20.76894,21.383809 32.38576,50.012839 32.3863,79.814319 -2e-5,-31.03101 -12.34187,-59.17993 -32.3863,-79.814319 z m 32.3863,79.814319 c -4.5e-4,30.96265 -12.53735,60.60741 -34.75615,82.18441 21.43712,-20.82201 34.75613,-49.94835 34.75615,-82.18441 z M 135.5194,135.06778 c -14.46886,1e-4 -26.19817,11.72279 -26.19826,26.18348 9e-5,14.46073 11.72939,26.18343 26.19826,26.18352 14.46891,-9e-5 26.19821,-11.72279 26.1983,-26.18352 -9e-5,-14.46069 -11.7294,-26.18338 -26.1983,-26.18348 z m -83.124906,0.26465 c -1.330747,-0.0265 -2.655985,0.30549 -3.830523,0.97772 -0.924133,0.53223 -1.718148,1.26375 -2.332839,2.1349 l 0.03961,0.068 c -5.37742,6.24182 -7.4814,20.82417 -5.334087,36.97963 1.019938,7.64477 2.92875,15.12543 5.501346,21.55853 l -0.02996,0.0176 c 1.307403,3.31206 2.878681,6.58533 4.683897,9.75575 v 0.008 c 0.350824,0.61258 0.710133,1.22099 1.077978,1.82418 7.011276,11.44098 16.608622,20.56087 26.432542,25.11739 4.126563,2.6839 8.939642,3.75212 14.021123,3.11209 2.710879,-0.11718 5.08866,-0.97192 7.353896,-2.05615 v 0 c 8.411953,-3.66089 15.773293,-11.78494 21.207253,-22.08674 1.52543,-2.94533 2.97198,-5.80328 4.33333,-8.96017 l 0.0248,0.002 2.15971,-5.84326 -0.0166,-0.0299 c 0.22323,-0.58218 0.22011,-1.12821 -0.0644,-1.52307 l 5.5e-4,-0.0119 -0.0111,-0.006 c -0.0198,-0.0257 -0.035,-0.0539 -0.0568,-0.0772 -0.31047,-0.35223 -0.82315,-0.49816 -1.42426,-0.46019 l -1.10207,-0.30537 -0.0285,0.075 c -4.4978,-1.34952 -8.68909,-3.56347 -12.33849,-6.51721 l -0.0166,0.0106 c -3.35408,-2.73663 -6.18935,-6.05254 -8.3718,-9.79002 -2.72084,-4.76376 -4.32263,-10.08383 -4.683396,-15.5572 0.156635,-0.55893 0.08187,-1.15715 -0.207971,-1.66023 -0.436905,-0.75726 -1.287706,-1.17613 -2.154883,-1.06183 -13.427354,-2.9443 -25.661841,-9.84769 -35.121164,-19.81685 -1.879173,-2.27058 -4.057944,-4.00384 -6.245906,-4.96842 -0.266902,-0.11756 -0.532921,-0.22123 -0.798146,-0.31069 -0.136855,-0.05 -0.273449,-0.0962 -0.409551,-0.13983 -0.166886,-0.0626 -0.333409,-0.12011 -0.499572,-0.17146 v 0 c -0.593437,-0.16199 -1.1507,-0.27617 -1.755528,-0.28825 z M 190.50988,147.9388 c -0.33557,-0.002 -0.67248,-0.002 -1.0099,0.001 -0.71988,0.005 -1.44423,0.0208 -2.17199,0.0477 -3.31511,0.14757 -6.51445,0.32002 -9.9312,0.71521 l -0.0103,-0.0225 -6.14459,1.04361 -0.0176,0.0294 c -0.61626,0.0968 -1.08782,0.3719 -1.28862,0.81487 l -0.0103,0.006 v 0.0134 c -0.0125,0.0296 -0.0293,0.0577 -0.0385,0.0877 -0.15062,0.44463 -0.0219,0.96087 0.3109,1.46255 l 0.28518,1.10738 0.0789,-0.0134 c 1.07287,4.56933 1.24321,9.30421 0.50171,13.93876 l 0.0178,0.009 c -0.7004,4.2704 -2.16189,8.38084 -4.31458,12.13547 -2.77446,4.73282 -6.58921,8.77272 -11.15601,11.81508 -0.56282,0.14305 -1.04455,0.50691 -1.33635,1.0088 -0.43886,0.75617 -0.37818,1.70213 0.15332,2.39633 4.14339,13.10006 4.25866,27.14088 0.33074,40.30712 -1.03191,2.76029 -1.44798,5.51217 -1.19323,7.88867 0.0311,0.28975 0.0738,0.57216 0.12811,0.84647 0.0249,0.14351 0.053,0.28521 0.0831,0.42483 0.029,0.17577 0.0624,0.34849 0.10072,0.51808 v 0 c 0.49761,1.9037 1.68399,3.50308 3.384,4.49532 0.92249,0.53509 1.95314,0.85772 3.01523,0.95575 l 0.039,-0.068 c 8.09509,1.54528 21.79065,-3.90556 34.73043,-13.82306 6.12116,-4.69625 11.6564,-10.08105 15.95247,-15.5181 l 0.0299,0.0171 c 2.22022,-2.78432 4.27546,-5.77838 6.12475,-8.92321 l 0.0107,-0.003 c 0.3561,-0.6094 0.70501,-1.22407 1.04473,-1.84347 6.42521,-11.77976 9.54761,-24.64233 8.59965,-35.42495 0.26947,-4.91324 -1.20427,-9.61549 -4.29367,-13.69818 -1.45366,-2.2899 -3.38093,-3.92305 -5.45095,-5.34452 v 0 c -6.69364,-4.95985 -16.14772,-7.33317 -26.54991,-7.40441 z M 53.289139,241.10849 c 20.833771,21.42499 49.976001,34.73648 82.230261,34.73648 -30.9799,-5.8e-4 -60.641193,-12.5304 -82.230261,-34.73648 z m 82.230261,34.73648 c 31.04858,0 59.21389,-12.33488 79.85993,-32.36801 -21.396,20.75733 -50.04141,32.36761 -79.85993,32.36801 z m 105.98051,-20.94454 c 0.40261,8e-5 0.80498,0.0204 1.20555,0.0605 -0.39649,-0.0393 -0.79872,-0.0605 -1.20555,-0.0605 z m 0,0 c -0.26034,0 -0.51781,0.0115 -0.77403,0.0278 0.25765,-0.0176 0.51577,-0.0268 0.77403,-0.0278 z m 1.20555,0.0605 c 2.00911,0.2015 3.93559,0.90327 5.60321,2.04116 -1.62634,-1.11183 -3.53795,-1.83658 -5.60321,-2.04116 z m -212.542585,-0.0278 c 0.402602,8e-5 0.804963,0.0204 1.205555,0.0605 -0.39648,-0.0393 -0.79874,-0.0605 -1.205555,-0.0605 z m 0,0 c -0.260348,0 -0.517781,0.0115 -0.774047,0.0278 0.257654,-0.0176 0.515799,-0.0268 0.774047,-0.0278 z m 1.205555,0.0605 c 2.009099,0.2015 3.935586,0.90328 5.603193,2.04116 -1.626356,-1.11183 -3.537901,-1.83661 -5.603193,-2.04116 z m 209.20628,-0.054 c -0.37093,0.0281 -0.737,0.072 -1.09781,0.13286 0.36372,-0.061 0.73003,-0.10536 1.09781,-0.13286 z m -211.337044,0.0326 c -0.370902,0.0281 -0.737008,0.072 -1.097806,0.13288 0.363713,-0.061 0.73003,-0.10536 1.097806,-0.13288 z m 210.172764,0.11198 c -0.38295,0.0668 -0.75979,0.15146 -1.12942,0.25342 0.3722,-0.10247 0.7491,-0.18704 1.12942,-0.25342 z m -211.337037,0.0326 c -0.382917,0.0668 -0.759791,0.15146 -1.129426,0.25341 0.372199,-0.10246 0.749114,-0.18703 1.129426,-0.25341 z m 210.182927,0.2277 c -0.38248,0.10637 -0.75677,0.2308 -1.12297,0.37286 0.36799,-0.14255 0.74278,-0.26699 1.12297,-0.37286 z m -211.337005,0.0327 c -0.38345,0.10663 -0.759158,0.23142 -1.126229,0.37394 0.369042,-0.14302 0.744911,-0.26783 1.126229,-0.37394 z m 210.194205,0.34821 c -0.36678,0.14304 -0.72485,0.30321 -1.07315,0.48001 0.3497,-0.17731 0.70785,-0.33752 1.07315,-0.48001 z m -211.333283,0.031 c -0.368258,0.14346 -0.727246,0.30412 -1.076913,0.48163 0.350904,-0.17798 0.710304,-0.3387 1.076913,-0.48163 z m 210.224203,0.46723 c -0.34013,0.17411 -0.67065,0.36396 -0.99113,0.56842 0.32123,-0.20499 0.65197,-0.39469 0.99113,-0.56842 z m -211.33701,0.0326 c -0.340137,0.17409 -0.670662,0.36394 -0.991133,0.56839 0.321226,-0.20498 0.651962,-0.39467 0.991133,-0.56839 z m 210.273,0.58234 c -0.30877,0.20012 -0.60728,0.41407 -0.89574,0.64074 0.28867,-0.22708 0.58756,-0.4409 0.89574,-0.64074 z m -211.337054,0.0327 c -0.310679,0.20135 -0.611475,0.41675 -0.901593,0.64499 0.290491,-0.22867 0.591336,-0.44391 0.901593,-0.64499 z m 224.735834,0.15268 c 0.31512,0.21667 0.61973,0.44819 0.91288,0.69377 -0.29279,-0.24529 -0.59745,-0.4767 -0.91288,-0.69377 z m -211.337043,0.0326 c 0.315122,0.21666 0.619758,0.44818 0.912883,0.69377 -0.292783,-0.2453 -0.597429,-0.47669 -0.912883,-0.69377 z m 196.952483,0.49341 c -0.28165,0.22565 -0.55251,0.46406 -0.81264,0.7136 0.26008,-0.24988 0.53123,-0.48798 0.81264,-0.7136 z m -211.332213,0.0289 c -0.283482,0.22689 -0.555744,0.46629 -0.81745,0.71739 0.261565,-0.25131 0.534319,-0.49065 0.81745,-0.71739 z m 226.700903,0.20029 c 0.2785,0.23669 0.54607,0.4859 0.80194,0.74684 -0.25576,-0.26096 -0.52349,-0.50984 -0.80194,-0.74684 z m -211.336998,0.0326 c 0.278476,0.23669 0.546063,0.48589 0.801917,0.74685 -0.255784,-0.26096 -0.523491,-0.50984 -0.801917,-0.74685 z m 195.065608,0.53735 c -0.26109,0.25565 -0.51012,0.52321 -0.74723,0.80148 0.23681,-0.27832 0.48614,-0.54575 0.74723,-0.80148 z m -211.337007,0.0326 c -0.261123,0.25561 -0.51014,0.52319 -0.747263,0.80144 0.236832,-0.27831 0.48616,-0.54573 0.747263,-0.80144 z M 250.21103,258.616 c 0.25002,0.25992 0.48828,0.53091 0.71403,0.81216 -0.22579,-0.28149 -0.46435,-0.55216 -0.71403,-0.81216 z m -211.33701,0.0326 c 0.250023,0.25995 0.488263,0.53096 0.714004,0.81219 -0.225802,-0.28146 -0.464334,-0.55217 -0.714004,-0.81219 z m 193.36907,0.57327 c -0.24547,0.29262 -0.47697,0.5971 -0.69417,0.91233 0.21681,-0.31492 0.44846,-0.61937 0.69417,-0.91233 z m -211.337052,0.0326 c -0.245437,0.29262 -0.47696,0.59708 -0.694157,0.91235 0.216794,-0.31493 0.448449,-0.61939 0.694157,-0.91235 z m 230.089782,0.26355 c 0.22844,0.29021 0.44342,0.59071 0.64428,0.90062 -0.20118,-0.31046 -0.41622,-0.61066 -0.64428,-0.90062 z m -211.337045,0.0326 c 0.227219,0.28852 0.441139,0.58722 0.641112,0.89521 -0.200245,-0.30859 -0.414315,-0.60691 -0.641112,-0.89521 z m 191.868165,0.61398 c -1.11235,1.62526 -1.83756,3.53553 -2.04232,5.59945 0.20171,-2.00776 0.90388,-3.93295 2.04232,-5.59945 z m -2.04232,5.59945 c -0.0393,0.39646 -0.0606,0.79814 -0.0606,1.20489 8e-5,-0.40239 0.0204,-0.80452 0.0606,-1.20489 z m -0.0606,1.20489 c 0,0.26019 0.0116,0.51803 0.0277,0.77416 -0.0175,-0.25768 -0.0268,-0.51588 -0.0277,-0.77416 z m -209.234066,-6.7719 c -1.112325,1.62529 -1.83754,3.53558 -2.04231,5.59951 0.201694,-2.00779 0.903875,-3.93299 2.04231,-5.59951 z m -2.04231,5.59951 c -0.0393,0.39643 -0.06062,0.7981 -0.06062,1.20487 9.1e-5,-0.40237 0.0203,-0.80451 0.06062,-1.20487 z m -0.06062,1.20487 c 0,0.26018 0.01166,0.51801 0.02795,0.77412 -0.0175,-0.25767 -0.02685,-0.51585 -0.02795,-0.77412 z m 233.593856,-6.51991 c 0.20511,0.32104 0.3949,0.65159 0.56872,0.99056 -0.17436,-0.3399 -0.36397,-0.67028 -0.56872,-0.99056 z m -211.334356,0.037 c 0.204095,0.31968 0.392979,0.64881 0.566069,0.98628 -0.173602,-0.33841 -0.362356,-0.66736 -0.566069,-0.98628 z m 211.925606,0.99754 c 0.17723,0.3495 0.33732,0.70745 0.47973,1.07255 -0.14296,-0.36655 -0.30296,-0.72444 -0.47973,-1.07255 z m -211.337037,0.0326 c 0.177242,0.3495 0.337352,0.70743 0.479768,1.07255 -0.142988,-0.36655 -0.302997,-0.72442 -0.479768,-1.07255 z m 211.822157,1.05269 c 0.14453,0.37232 0.27046,0.75155 0.37737,1.13632 -0.10743,-0.38711 -0.23339,-0.76586 -0.37737,-1.13632 z m -211.33704,0.0326 c 0.144516,0.3723 0.270463,0.75153 0.377367,1.13628 -0.107418,-0.38709 -0.233365,-0.76587 -0.377367,-1.13628 z m 211.716,1.10843 c 0.1038,0.37584 0.18929,0.75647 0.25622,1.14058 -0.0675,-0.3868 -0.15283,-0.7674 -0.25622,-1.14058 z m -211.337015,0.0326 c 0.103736,0.37515 0.189236,0.75506 0.256226,1.13846 -0.06747,-0.38605 -0.153022,-0.76592 -0.256226,-1.13846 z m 211.604495,1.1706 c 0.0614,0.36386 0.1058,0.73033 0.13347,1.09826 -0.0283,-0.3711 -0.0725,-0.73732 -0.13347,-1.09826 z m -211.336496,0.0337 c 0.06113,0.36351 0.105416,0.72962 0.132944,1.09717 -0.02816,-0.3707 -0.07209,-0.73659 -0.132944,-1.09717 z m 211.481256,1.21451 c 0.0174,0.25785 0.0264,0.5162 0.0272,0.77466 0,-0.26055 -0.011,-0.51822 -0.0272,-0.77466 z m 0.0272,0.77466 c 1.1e-4,0.40254 -0.0199,0.80484 -0.06,1.20537 0.0392,-0.39639 0.06,-0.79863 0.06,-1.20537 z m -0.06,1.20537 c -0.20195,2.00999 -0.90546,3.93718 -2.04605,5.60489 1.11442,-1.62644 1.84109,-3.53863 2.04605,-5.60489 z M 42.211394,266.2266 c 0.0174,0.25787 0.02644,0.51624 0.02725,0.77469 0,-0.26057 -0.01106,-0.51823 -0.02725,-0.77469 z m 0.02725,0.77469 c 1.01e-4,0.40256 -0.0199,0.80484 -0.06002,1.20539 0.03931,-0.39642 0.06002,-0.79864 0.06002,-1.20539 z m -0.06002,1.20539 c -0.201693,2.00779 -0.903865,3.93299 -2.042299,5.5995 1.112324,-1.62528 1.837529,-3.53554 2.042299,-5.5995 z m 187.284506,-0.31286 c 0.0281,0.37069 0.0721,0.7366 0.13291,1.09717 -0.0611,-0.36349 -0.1054,-0.72961 -0.13291,-1.09717 z m -211.337055,0.0326 c 0.02814,0.37072 0.07209,0.7366 0.132954,1.09718 -0.06113,-0.3635 -0.105426,-0.72961 -0.132954,-1.09718 z m 211.481755,1.13092 c 0.067,0.38273 0.15154,0.7594 0.25355,1.12881 -0.10248,-0.372 -0.18713,-0.74869 -0.25355,-1.12881 z m -211.337027,0.0326 c 0.06685,0.38272 0.151552,0.75935 0.253551,1.12878 -0.102481,-0.372 -0.187145,-0.74868 -0.253551,-1.12878 z m 211.597557,1.12074 c 0.10644,0.38228 0.23091,0.75636 0.37307,1.12236 -0.14265,-0.36779 -0.26714,-0.74237 -0.37307,-1.12236 z m -211.337028,0.0326 c 0.106431,0.3823 0.230929,0.75633 0.373063,1.12236 -0.142636,-0.3678 -0.267135,-0.74236 -0.373063,-1.12236 z m 211.718138,1.10951 c 0.14313,0.36653 0.30337,0.72441 0.48029,1.07254 -0.17742,-0.34952 -0.3377,-0.70746 -0.48029,-1.07254 z m -211.337032,0.0326 c 0.143118,0.36653 0.30338,0.72444 0.48029,1.07255 -0.177433,-0.34952 -0.337715,-0.70746 -0.48029,-1.07255 z m 211.835542,1.07567 c 0.17501,0.34145 0.3658,0.67322 0.57141,0.99487 -0.20615,-0.32239 -0.39681,-0.65437 -0.57141,-0.99487 z m -211.337045,0.0326 c 0.175001,0.34148 0.365825,0.67324 0.571439,0.99488 -0.206157,-0.32238 -0.396831,-0.65436 -0.571439,-0.99488 z m 211.949215,1.0254 c 0.2012,0.31044 0.41624,0.61065 0.6443,0.90056 -0.22843,-0.29019 -0.44344,-0.59069 -0.6443,-0.90056 z m -211.337053,0.0329 c 0.201201,0.31044 0.416235,0.61065 0.644331,0.90058 -0.228437,-0.29018 -0.443441,-0.59068 -0.644331,-0.90058 z m 231.435773,0.24109 c -0.21897,0.31874 -0.45314,0.62679 -0.70171,0.92306 0.24828,-0.29596 0.48236,-0.60396 0.70171,-0.92306 z m -211.344538,0.0434 c -0.216805,0.31493 -0.44846,0.61939 -0.69417,0.91233 0.245439,-0.29261 0.476973,-0.59707 0.69417,-0.91233 z m 191.960858,0.67344 c 0.22579,0.28146 0.46432,0.55215 0.71401,0.81215 -0.25001,-0.25993 -0.48826,-0.53092 -0.71401,-0.81215 z m -211.337002,0.0326 c 0.225772,0.28147 0.464314,0.55215 0.713985,0.81216 -0.250013,-0.25993 -0.488253,-0.53093 -0.713985,-0.81216 z m 229.957352,0.24481 c -0.23682,0.27833 -0.48615,0.54575 -0.74723,0.80146 0.26109,-0.25562 0.51012,-0.52317 0.74723,-0.80146 z m -211.337028,0.0326 c -0.236811,0.27835 -0.486163,0.54577 -0.747243,0.80148 0.261101,-0.25562 0.510119,-0.52318 0.747243,-0.80148 z m 193.516468,0.59232 c 0.25575,0.26092 0.52348,0.50985 0.80191,0.74685 -0.27848,-0.2367 -0.54607,-0.48592 -0.80191,-0.74685 z m -211.337037,0.0326 c 0.25512,0.26026 0.522084,0.50821 0.799776,0.74466 -0.277702,-0.23603 -0.544576,-0.48452 -0.799776,-0.74466 z m 228.320317,0.2298 c -0.26008,0.24988 -0.53124,0.48798 -0.81266,0.7136 0.28165,-0.22566 0.55251,-0.46405 0.81266,-0.7136 z m -211.337045,0.0326 c -0.260066,0.24987 -0.531212,0.48798 -0.812625,0.71359 0.281653,-0.22563 0.552468,-0.46406 0.812625,-0.71359 z m 195.226955,0.51325 c 0.29279,0.24529 0.59744,0.4767 0.91288,0.69376 -0.31511,-0.21666 -0.61975,-0.4482 -0.91288,-0.69376 z m -211.337007,0.0331 c 0.292952,0.24542 0.598293,0.47663 0.913938,0.69378 -0.315475,-0.21665 -0.620472,-0.44816 -0.913938,-0.69378 z m 226.544397,0.20519 c -0.29033,0.22831 -0.59101,0.44319 -0.90106,0.64396 0.31061,-0.20109 0.61098,-0.41599 0.90106,-0.64396 z m -211.337033,0.0326 c -0.290349,0.2283 -0.591025,0.44317 -0.901079,0.64393 0.310607,-0.2011 0.611012,-0.41599 0.901079,-0.64393 z m 197.073073,0.44465 c 1.62621,1.1117 3.53756,1.83649 5.60268,2.04114 -2.00893,-0.20157 -3.93522,-0.90336 -5.60268,-2.04114 z m 5.60268,2.04114 c 0.39662,0.0393 0.79852,0.0601 1.20555,0.0601 -0.4026,9e-5 -0.80495,-0.02 -1.20555,-0.0601 z m 1.20555,0.0601 c 0.26069,0 0.51904,-0.0111 0.77562,-0.0273 -0.25818,0.0174 -0.51686,0.0265 -0.77562,0.0273 z m -218.145783,-2.0689 c 1.626333,1.11195 3.53786,1.83704 5.603192,2.04169 -2.00915,-0.20165 -3.935628,-0.90362 -5.603192,-2.04169 z m 5.603192,2.04169 c 0.396661,0.0393 0.79857,0.06 1.205556,0.06 -0.402603,9e-5 -0.804954,-0.0199 -1.205556,-0.06 z m 1.205556,0.06 c 0.260699,0 0.519037,-0.0111 0.775645,-0.0273 -0.258196,0.0174 -0.516876,0.0266 -0.775645,0.0273 z m 217.828425,-1.92648 c -0.3212,0.20499 -0.65195,0.39468 -0.9911,0.56841 0.34008,-0.17429 0.67069,-0.36379 0.9911,-0.56841 z m -211.336993,0.0326 c -0.321234,0.20499 -0.65198,0.39467 -0.991162,0.5684 0.340136,-0.17427 0.670702,-0.36377 0.991162,-0.5684 z m 210.301923,0.55823 c -0.34972,0.17715 -0.70786,0.33716 -1.07314,0.47951 0.36675,-0.14293 0.72482,-0.30282 1.07314,-0.47951 z m -211.337022,0.0326 c -0.349717,0.17715 -0.707862,0.33715 -1.073153,0.47948 0.36674,-0.14292 0.724853,-0.3028 1.073153,-0.47948 z m 210.251002,0.45215 c -0.36902,0.1432 -0.74488,0.26818 -1.12619,0.37447 0.38362,-0.1067 0.75897,-0.23187 1.12619,-0.37447 z m -211.337035,0.0326 c -0.369031,0.1432 -0.744889,0.26817 -1.126207,0.3745 0.38365,-0.10675 0.758995,-0.23189 1.126207,-0.3745 z m 210.186165,0.34878 c -0.37309,0.10252 -0.75088,0.1871 -1.13211,0.25339 0.38384,-0.0669 0.76165,-0.15121 1.13211,-0.25339 z m -211.337025,0.0326 c -0.373083,0.10254 -0.750883,0.18712 -1.132101,0.25341 0.383812,-0.0669 0.76162,-0.15124 1.132101,-0.25341 z m 210.142195,0.23198 c -0.36405,0.0612 -0.73074,0.10575 -1.09888,0.13339 0.37131,-0.0282 0.73772,-0.0725 1.09888,-0.13339 z m -211.337011,0.0326 c -0.364057,0.0612 -0.730746,0.10574 -1.098882,0.13338 0.371283,-0.0281 0.737711,-0.0725 1.098882,-0.13338 z"
       id="path1266-5"
       inkscape:connector-curvature="0"
       sodipodi:nodetypes="ccccccccccccccccccccccccccccccccccccccccccccccccccccccccccccccccccccccccccccccccccccccccccccccccccccccccccccccccccccccccccccccccccccccccccccccccccccccccccccccccccccccccccccccccccccccccccccccccccccccccccccccccccccccccccccccccccccccccccccccccccccccccccccccccccccccccccccccccccccccccccccccccccccccccccccccccccccccccccccccccccccccccccccccccccccccccccccccccccccccccccccccccccccccccccccccccccccccccccccccccccccccccccccccccccccccccccccccccccccccccccccccccccccccccccccccccccccccccccccccccccccccccccccccccccccccccccccccccccccccccccccccccccccccccccccccccccccccccccccccccccccccccccccccccccccccccccccccccccccccccccccccccccccccccccccccccccccccccccccccccccccccccccccccccccccccccccccccccccccccccccccccccccccccccccccccccccccccccccccccccccccc"
       inkscape:export-filename="/media/nfs/HQ505/NAS/AppKidDemoIcon3.png"
       inkscape:export-xdpi="96"
       inkscape:export-ydpi="96" />
    <path
       style="opacity:1;fill:url(#radialGradient18376);fill-opacity:1;stroke:none;stroke-width:1.46369529;stroke-linecap:round;stroke-linejoin:miter;stroke-miterlimit:4;stroke-dasharray:none;stroke-opacity:1;paint-order:normal"
       d="m 241.46663,43.683158 c 0.40277,-1.11e-4 0.80532,0.01991 1.2061,0.06001 -0.39666,-0.0393 -0.79909,-0.06001 -1.2061,-0.06001 z m 0,0 c -0.2607,0 -0.51849,0.01106 -0.77512,0.02737 0.25802,-0.01739 0.51652,-0.02655 0.77512,-0.02737 z m 1.2061,0.06001 c 2.00891,0.201587 3.93518,0.903365 5.60264,2.04116 -1.62617,-1.111715 -3.53757,-1.836507 -5.60264,-2.04116 z M 30.129615,43.715338 c 0.40278,6e-5 0.80531,0.0203 1.20606,0.06053 -0.39664,-0.0393 -0.79908,-0.06053 -1.20606,-0.06053 z m 0,0 c -0.26035,0 -0.51782,0.01156 -0.77405,0.02786 0.25765,-0.01749 0.5158,-0.02684 0.77405,-0.02786 z m 1.20606,0.06053 c 2.00893,0.201575 3.93522,0.903375 5.60268,2.041149 -1.62621,-1.111704 -3.53757,-1.836505 -5.60268,-2.041149 z m 209.205745,-0.05408 c -0.37089,0.02806 -0.737,0.07208 -1.0978,0.132856 0.36371,-0.06103 0.73003,-0.105348 1.0978,-0.132856 z m -211.337015,0.03268 c -0.37094,0.02815 -0.73701,0.07208 -1.09781,0.132868 0.36371,-0.06103 0.73003,-0.105349 1.09781,-0.132868 z m 210.172775,0.111978 c -0.38295,0.06676 -0.75984,0.151434 -1.12945,0.253403 0.3722,-0.102432 0.74912,-0.187026 1.12945,-0.253403 z m -211.337065,0.03268 c -0.38293,0.06676 -0.75979,0.151444 -1.12941,0.253403 0.3722,-0.102442 0.7491,-0.187016 1.12941,-0.253403 z m 210.182955,0.227665 c -0.38554,0.107238 -0.76262,0.233136 -1.13158,0.376618 0.37076,-0.144096 0.74842,-0.269781 1.13158,-0.376618 z m -211.337045,0.03268 c -0.38283,0.106473 -0.75755,0.231175 -1.12406,0.373411 0.36836,-0.142779 0.74348,-0.267401 1.12406,-0.373411 z m 210.204405,0.344476 c -0.36898,0.143522 -0.72926,0.304448 -1.07959,0.482155 0.35177,-0.178229 0.71205,-0.339156 1.07959,-0.482155 z m -211.345615,0.0359 c -0.36736,0.143211 -0.72589,0.303424 -1.07475,0.480558 0.35022,-0.177567 0.70889,-0.33794 1.07475,-0.480558 z M 235.9669,45.008609 c -0.33862,0.173505 -0.66774,0.362141 -0.98685,0.565727 0.31987,-0.203968 0.64918,-0.392745 0.98685,-0.565727 z m -211.332765,0.02996 c -0.34012,0.174108 -0.67065,0.363949 -0.99113,0.568412 0.32121,-0.204995 0.65197,-0.394687 0.99113,-0.568412 z m 210.273005,0.58232 c -0.30876,0.200096 -0.60725,0.414059 -0.89571,0.64074 0.28867,-0.227084 0.58756,-0.440894 0.89571,-0.64074 z m -211.337025,0.03268 c -0.3098,0.200761 -0.60959,0.415366 -0.89898,0.642871 0.28967,-0.227897 0.58966,-0.442402 0.89898,-0.642871 z m 224.735835,0.152674 c 0.31511,0.216686 0.61972,0.448212 0.91286,0.693794 -0.2928,-0.24532 -0.59742,-0.476706 -0.91286,-0.693794 z m -211.337045,0.03268 c 0.3151,0.216677 0.61975,0.448223 0.91287,0.693794 -0.29277,-0.24532 -0.59746,-0.476705 -0.91287,-0.693794 z m 196.952465,0.493415 c -0.28166,0.225656 -0.55247,0.464059 -0.81265,0.713604 0.26009,-0.249877 0.53123,-0.487988 0.81265,-0.713604 z m -211.333835,0.02996 c -0.28288,0.226487 -0.55455,0.465705 -0.81584,0.716275 0.26105,-0.250862 0.53328,-0.489858 0.81584,-0.716275 z M 249.29009,46.56159 c 0.27849,0.236675 0.54607,0.485875 0.80193,0.74681 -0.25579,-0.260935 -0.52349,-0.509834 -0.80193,-0.74681 z m -211.337035,0.03267 c 0.27848,0.236685 0.54606,0.485878 0.80191,0.746822 -0.25575,-0.260954 -0.52347,-0.509835 -0.80191,-0.746822 z m 97.565785,0.06324 c 30.98019,5.81e-4 60.64171,12.53061 82.2308,34.737047 C 196.91588,59.969546 167.7731,46.657519 135.51884,46.657499 Z m 0,0 C 104.4703,46.657514 76.305485,58.992924 55.659455,79.02606 77.055235,58.268633 105.70045,46.658186 135.51884,46.657493 Z m 97.49984,0.474122 c -0.26106,0.255625 -0.51012,0.523176 -0.74724,0.801455 0.23681,-0.278319 0.48617,-0.545739 0.74724,-0.801455 z m -211.337015,0.03268 c -0.2611,0.255617 -0.51015,0.523188 -0.74728,0.801467 0.23682,-0.278319 0.48617,-0.545759 0.74728,-0.801467 z m 228.496105,0.2341 c 0.25002,0.25994 0.48826,0.530938 0.71399,0.812194 -0.22575,-0.281496 -0.46431,-0.552184 -0.71399,-0.812194 z m -211.337035,0.03267 c 0.25002,0.25993 0.48827,0.530929 0.71402,0.812183 -0.2258,-0.281486 -0.46434,-0.552171 -0.71402,-0.812183 z M 232.2098,48.004313 c -0.24543,0.292637 -0.47693,0.597095 -0.69416,0.912362 0.2168,-0.314935 0.44846,-0.619394 0.69416,-0.912362 z m -211.337025,0.03268 c -0.24542,0.292637 -0.47695,0.597095 -0.69417,0.912362 0.2168,-0.314935 0.44846,-0.619394 0.69417,-0.912362 z m 230.089745,0.263589 c 0.22846,0.290182 0.44346,0.590681 0.64434,0.900569 -0.20121,-0.310452 -0.41623,-0.610638 -0.64434,-0.900569 z m -211.337015,0.03268 c 0.22843,0.290183 0.44344,0.590679 0.64431,0.900559 -0.2012,-0.310431 -0.41625,-0.610638 -0.64431,-0.900559 z m 191.868135,0.613946 c -1.11232,1.625291 -1.83754,3.535575 -2.04229,5.599505 0.20169,-2.007787 0.90386,-3.932993 2.04229,-5.599505 z m -2.04229,5.599505 c -0.0392,0.396426 -0.0607,0.798631 -0.0607,1.205401 7e-5,-0.402559 0.0203,-0.804853 0.0607,-1.205401 z m -0.0607,1.205401 c 0,0.2602 0.0117,0.517504 0.0279,0.773606 -0.0175,-0.257507 -0.0268,-0.515507 -0.0279,-0.773606 z M 20.156575,48.979885 c -1.11229,1.62529 -1.83757,3.535565 -2.04232,5.599505 0.2017,-2.007788 0.90389,-3.932984 2.04232,-5.599505 z m -2.04232,5.599505 c -0.0394,0.396426 -0.0601,0.798098 -0.0601,1.204877 -6e-5,-0.402385 0.02,-0.80451 0.0601,-1.204877 z m -0.0601,1.204877 c 0,0.260192 0.0114,0.51803 0.0281,0.774128 -0.0176,-0.257676 -0.0269,-0.515847 -0.0281,-0.774128 z m 233.593835,-6.51991 c 0.20513,0.321048 0.39492,0.651608 0.56876,0.990583 -0.17437,-0.339921 -0.364,-0.670309 -0.56876,-0.990583 z m -211.337005,0.03267 c 0.2051,0.321027 0.39488,0.651608 0.56871,0.990571 -0.17436,-0.33991 -0.36397,-0.670318 -0.56871,-0.990571 z M 252.23924,50.29885 c 0.17726,0.349511 0.33736,0.707448 0.47977,1.072534 -0.14298,-0.366523 -0.30296,-0.72442 -0.47977,-1.072534 z M 40.902225,50.33153 c 0.17724,0.349531 0.33733,0.707479 0.47974,1.072563 -0.14296,-0.366544 -0.30297,-0.72443 -0.47974,-1.072563 z m 211.822145,1.052726 c 0.14452,0.372295 0.27045,0.751525 0.37736,1.136288 -0.10739,-0.387094 -0.23335,-0.765864 -0.37736,-1.136288 z m -211.337015,0.03268 c 0.14451,0.372294 0.27046,0.751527 0.37736,1.136307 -0.10742,-0.387114 -0.23339,-0.765872 -0.37736,-1.136307 z m 211.715985,1.108448 c 0.1038,0.375823 0.18931,0.756473 0.25624,1.14058 -0.0677,-0.386782 -0.15286,-0.767402 -0.25624,-1.14058 z m -211.337025,0.03268 c 0.10379,0.375833 0.18929,0.756482 0.25622,1.14058 -0.0675,-0.386773 -0.15284,-0.767391 -0.25622,-1.14058 z m 211.604515,1.170587 c 0.0614,0.36385 0.10581,0.730312 0.13346,1.098243 -0.0281,-0.371077 -0.0726,-0.737299 -0.13346,-1.098243 z m -211.337035,0.03268 c 0.0613,0.363851 0.10581,0.730333 0.13348,1.098263 -0.0283,-0.371096 -0.0725,-0.737309 -0.13348,-1.098263 z m 211.481765,1.215573 c 0.0174,0.258049 0.0264,0.516582 0.0272,0.775213 0,-0.260562 -0.011,-0.518762 -0.0272,-0.775213 z m 0.0272,0.775213 c 9e-5,0.402368 -0.02,0.804492 -0.0602,1.204868 0.0393,-0.396434 0.0602,-0.798097 0.0602,-1.204868 z m -0.0602,1.204868 c -0.20168,2.00779 -0.90384,3.932984 -2.04229,5.599496 1.11233,-1.62529 1.83756,-3.535574 2.04229,-5.599496 z M 42.178355,55.009588 c 0.0174,0.257867 0.0264,0.516229 0.0272,0.774679 0,-0.260561 -0.0111,-0.518228 -0.0272,-0.774679 z m 0.0272,0.774679 c 1.1e-4,0.402549 -0.0199,0.804845 -0.06,1.205402 0.0393,-0.396425 0.06,-0.798651 0.06,-1.205402 z m -0.06,1.205402 c -0.20194,2.00997 -0.90546,3.937145 -2.04604,5.604864 1.1144,-1.626466 1.84107,-3.53865 2.04604,-5.604864 z M 229.43006,56.676793 c 0.0282,0.370707 0.0722,0.736596 0.13294,1.097177 -0.0612,-0.363496 -0.1054,-0.729609 -0.13294,-1.097177 z m -211.337035,0.03268 c 0.0281,0.370706 0.0716,0.736596 0.13299,1.097187 -0.0611,-0.363506 -0.10544,-0.729617 -0.13299,-1.097187 z m 211.481785,1.130938 c 0.0669,0.382732 0.15152,0.759378 0.25354,1.128797 -0.10249,-0.371992 -0.18714,-0.748691 -0.25354,-1.128797 z m -211.337075,0.03268 c 0.0663,0.382708 0.15155,0.759357 0.25362,1.128775 -0.10259,-0.371992 -0.18717,-0.748691 -0.25362,-1.128775 z m 211.597575,1.120743 c 0.10647,0.382297 0.23091,0.756371 0.37305,1.122362 -0.14261,-0.367801 -0.26711,-0.742377 -0.37305,-1.122362 z m -211.337005,0.03268 c 0.10642,0.382297 0.2309,0.756363 0.37301,1.122362 -0.14262,-0.367812 -0.2671,-0.742377 -0.37301,-1.122362 z M 230.2164,60.136017 c 0.14314,0.366544 0.30339,0.724431 0.48031,1.072533 -0.17743,-0.3495 -0.33771,-0.707437 -0.48031,-1.072533 z m -211.336995,0.03268 c 0.14315,0.366542 0.3033,0.72444 0.48026,1.072544 -0.17742,-0.349511 -0.33769,-0.707439 -0.48026,-1.072544 z m 211.835535,1.075742 c 0.17421,0.339949 0.36415,0.670269 0.56875,0.990583 -0.20512,-0.321049 -0.3949,-0.651609 -0.56875,-0.990583 z m -211.337015,0.03266 c 0.17499,0.341449 0.36576,0.673225 0.57134,0.994847 -0.20612,-0.322387 -0.39677,-0.654364 -0.57134,-0.994847 z M 231.3303,62.307848 c 0.20025,0.308592 0.41431,0.606929 0.64112,0.89522 -0.22722,-0.288512 -0.44115,-0.58721 -0.64112,-0.89522 z m -211.340265,0.02737 c 0.20124,0.31043 0.41627,0.610636 0.64437,0.900568 -0.22847,-0.290184 -0.44347,-0.590691 -0.64437,-0.900568 z m 231.428275,0.251791 c -0.21678,0.314926 -0.44843,0.619396 -0.69417,0.912353 0.24546,-0.292625 0.47698,-0.597106 0.69417,-0.912353 z m -211.329525,0.02201 c -0.21896,0.318746 -0.45313,0.626785 -0.70169,0.92306 0.24827,-0.295952 0.48235,-0.603963 0.70169,-0.92306 z m 191.953395,0.684123 c 0.22579,0.281485 0.46431,0.552174 0.714,0.812173 -0.25001,-0.259928 -0.48825,-0.53092 -0.714,-0.812173 z m -211.337035,0.03269 c 0.22582,0.281496 0.46429,0.552173 0.71398,0.812173 -0.25002,-0.25993 -0.48824,-0.530919 -0.71398,-0.812173 z M 250.6625,63.570667 c -0.23682,0.278321 -0.48615,0.54574 -0.74725,0.801446 0.26112,-0.255616 0.51012,-0.523176 0.74725,-0.801446 z M 39.325455,63.60335 c -0.2368,0.278298 -0.48614,0.545739 -0.74721,0.801446 0.26108,-0.255627 0.51012,-0.523198 0.74721,-0.801446 z m 193.516495,0.591964 c 0.25576,0.260956 0.52347,0.509836 0.80188,0.746812 -0.27845,-0.236674 -0.54603,-0.485866 -0.80188,-0.746812 z m -211.337045,0.03268 c 0.25735,0.262554 0.52642,0.512822 0.80671,0.751105 -0.28021,-0.237961 -0.54939,-0.488591 -0.80671,-0.751105 z m 228.320305,0.229838 c -0.26008,0.249887 -0.53122,0.487988 -0.81262,0.713602 0.28163,-0.225654 0.55247,-0.464058 0.81262,-0.713602 z m -211.337005,0.03267 c -0.26009,0.249876 -0.53126,0.487978 -0.81267,0.713591 0.28165,-0.225642 0.55251,-0.464057 0.81267,-0.713591 z m 195.226945,0.513233 c 0.29278,0.245311 0.59743,0.476687 0.91287,0.693776 -0.31511,-0.216686 -0.61975,-0.448204 -0.91287,-0.693776 z m -211.340265,0.02996 c 0.29365,0.246227 0.59955,0.478638 0.91614,0.696461 -0.31629,-0.217471 -0.62201,-0.449893 -0.91614,-0.696461 z m 226.547635,0.208398 c -0.29033,0.228309 -0.59102,0.443197 -0.90108,0.643947 0.31061,-0.201073 0.61102,-0.415989 0.90108,-0.643947 z m -211.337025,0.03268 c -0.29035,0.228311 -0.59102,0.443185 -0.90108,0.643956 0.31063,-0.201093 0.61098,-0.415999 0.90108,-0.643956 z m 100.572415,0.10768 c -0.70632,-0.002 -1.4129,0.005 -2.11948,0.02252 -13.41922,0.359173 -26.11762,4.116753 -34.9727,10.348796 -4.387025,2.233414 -7.715825,5.867893 -9.697985,10.587723 -1.25202,2.405963 -1.69856,4.891891 -1.88953,7.394765 h -1e-5 c -1.02621,9.112223 2.3416,19.542983 8.55944,29.392023 1.79196,2.79149 3.547235,5.4707 5.604275,8.22567 l -0.0155,0.0161 3.98756,4.78788 h 0.0343 c 0.39323,0.48401 0.86777,0.75381 1.35188,0.70501 l 0.0106,0.006 0.0103,-0.008 c 0.0321,-0.004 0.0644,-0.004 0.0954,-0.0107 0.46036,-0.093 0.8424,-0.46359 1.10961,-1.00289 l 0.81531,-0.80253 -0.0515,-0.0611 c 3.41551,-3.22108 7.42773,-5.74515 11.81052,-7.43066 v -0.0199 c 4.04712,-1.53812 8.33678,-2.33815 12.66656,-2.36204 5.48832,0.0223 10.90025,1.29176 15.82542,3.7121 0.40633,0.41466 0.96247,0.64849 1.54327,0.64877 0.87466,-2.9e-4 1.66292,-0.52762 1.99675,-1.33558 9.25649,-10.15743 21.3495,-17.30533 34.71486,-20.5192 2.90668,-0.49361 5.49705,-1.51513 7.42571,-2.92833 0.23504,-0.17233 0.45782,-0.35095 0.6679,-0.53572 0.11171,-0.0936 0.22031,-0.18876 0.32592,-0.28502 0.13754,-0.11328 0.27014,-0.22901 0.39773,-0.34715 v 0 c 1.39755,-1.38571 2.18604,-3.21403 2.19133,-5.181587 0,-1.065979 -0.23793,-2.118567 -0.68615,-3.085824 h -0.0788 c -2.7265,-7.773073 -14.31769,-16.874905 -29.3953,-23.0816 -7.13679,-2.933704 -14.57504,-5.015554 -21.43665,-5.999692 v -0.03478 c -3.52377,-0.521527 -7.14647,-0.794948 -10.7962,-0.814847 z m 96.50065,0.336984 c 1.62622,1.111704 3.53757,1.836518 5.60268,2.041149 -2.00892,-0.201585 -3.93523,-0.903364 -5.60268,-2.041149 z m 5.60268,2.041149 c 0.39664,0.0393 0.79856,0.06052 1.20554,0.06052 -0.4026,-9.1e-5 -0.80496,-0.02031 -1.20554,-0.06052 z m 1.20554,0.06052 c 0.26033,0 0.51832,-0.01156 0.77457,-0.02787 -0.25784,0.01749 -0.51616,0.02685 -0.77457,0.02787 z M 23.321525,65.752103 c 1.62624,1.111694 3.53757,1.836516 5.60268,2.041148 -2.00894,-0.201574 -3.93522,-0.903352 -5.60268,-2.041148 z m 5.60268,2.041148 c 0.39662,0.0393 0.79854,0.06003 1.20556,0.06003 -0.40262,9e-5 -0.80497,-0.0199 -1.20556,-0.06003 z m 1.20556,0.06003 c 0.26069,0 0.51903,-0.01106 0.77564,-0.02736 -0.25818,0.0174 -0.51687,0.02655 -0.77564,0.02736 z M 247.95819,65.926759 c -0.32121,0.204994 -0.65195,0.394674 -0.99111,0.568409 0.34009,-0.174267 0.67067,-0.363776 0.99111,-0.568409 z m -211.337035,0.03268 c -0.32122,0.205015 -0.65196,0.394696 -0.99112,0.568431 0.34009,-0.174278 0.67069,-0.363777 0.99112,-0.568431 z m 210.301965,0.558248 c -0.34853,0.176659 -0.7054,0.336328 -1.0694,0.478414 0.36543,-0.142537 0.72227,-0.302337 1.0694,-0.478414 z m -211.337065,0.03268 c -0.34971,0.177143 -0.70784,0.337174 -1.07312,0.479481 0.36675,-0.142889 0.72482,-0.30279 1.07312,-0.479481 z M 245.83386,67.00414 c -0.36801,0.142557 -0.74279,0.266997 -1.12299,0.372867 0.38253,-0.106394 0.7568,-0.230782 1.12299,-0.372867 z M 34.500065,67.03521 c -0.36904,0.143212 -0.7449,0.268184 -1.12622,0.374487 0.38362,-0.106705 0.75901,-0.231879 1.12622,-0.374487 z m 210.186145,0.34878 c -0.37308,0.10253 -0.75087,0.187106 -1.1321,0.253392 0.38383,-0.06687 0.76165,-0.151204 1.1321,-0.253392 z M 33.349175,67.41666 c -0.37309,0.102542 -0.75089,0.187118 -1.1321,0.253404 0.38384,-0.06687 0.76165,-0.151203 1.1321,-0.253404 z m 210.142215,0.23197 c -0.36405,0.06123 -0.73073,0.10576 -1.09886,0.13341 0.3713,-0.02826 0.73771,-0.07248 1.09886,-0.13341 z M 32.154345,67.6813 c -0.36406,0.06123 -0.73073,0.10574 -1.09886,0.1334 0.37129,-0.02826 0.73772,-0.07249 1.09886,-0.1334 z m 23.46292,11.385983 c -21.43707,20.822037 -34.75662,49.947827 -34.75673,82.183867 8.1e-4,-30.96254 12.53798,-60.60709 34.75691,-82.183837 z m -34.75673,82.183867 c 1.1e-4,31.03105 12.34247,59.18048 32.3869,79.81488 -20.76929,-21.38383 -32.38633,-50.01309 -32.3869,-79.81488 z M 217.79108,81.436826 c 20.76894,21.383804 32.38577,50.012834 32.3863,79.814314 -2e-5,-31.03101 -12.34188,-59.17993 -32.3863,-79.814314 z m 32.3863,79.814314 c -4.5e-4,30.96265 -12.53735,60.6074 -34.75615,82.18441 21.43713,-20.822 34.75613,-49.94834 34.75615,-82.18441 z M 135.51914,135.06769 c -14.46886,9e-5 -26.19816,11.72279 -26.19826,26.18348 1e-4,14.46073 11.72939,26.18343 26.19826,26.18352 14.46891,-9e-5 26.19821,-11.72279 26.1983,-26.18352 -9e-5,-14.46069 -11.7294,-26.18339 -26.1983,-26.18348 z m -83.124915,0.26465 c -1.33073,-0.0265 -2.65597,0.30549 -3.83051,0.97772 -0.92413,0.53223 -1.71816,1.26375 -2.33285,2.1349 l 0.0396,0.068 c -5.37743,6.24183 -7.48141,20.82418 -5.3341,36.97964 1.01995,7.64477 2.92875,15.12543 5.50135,21.55853 l -0.03,0.0176 c 1.30741,3.31206 2.87868,6.58533 4.6839,9.75575 v 0.008 c 0.35083,0.61258 0.71014,1.22099 1.07798,1.82418 7.01127,11.44098 16.60862,20.56087 26.43254,25.11739 4.12657,2.68391 8.93964,3.75212 14.02112,3.11209 2.71088,-0.11718 5.08868,-0.97192 7.35391,-2.05615 h -1e-5 c 8.411935,-3.66089 15.773285,-11.78494 21.207255,-22.08674 1.52544,-2.94533 2.97197,-5.80328 4.33333,-8.96016 l 0.0248,0.002 2.15971,-5.84327 -0.0166,-0.0299 c 0.22324,-0.58218 0.22011,-1.12821 -0.0644,-1.52307 l 5.6e-4,-0.0119 -0.0112,-0.006 c -0.0197,-0.0257 -0.035,-0.0539 -0.0569,-0.0772 -0.31046,-0.35223 -0.82314,-0.49816 -1.42425,-0.46019 l -1.10207,-0.30537 -0.0285,0.075 c -4.49781,-1.34952 -8.68909,-3.56347 -12.33849,-6.51721 l -0.0166,0.0106 c -3.35409,-2.73663 -6.18935,-6.05254 -8.3718,-9.79002 -2.72084,-4.76376 -4.322635,-10.08383 -4.683405,-15.5572 0.15664,-0.55893 0.082,-1.15715 -0.20798,-1.66023 -0.4369,-0.75726 -1.28769,-1.17613 -2.15488,-1.06183 -13.42736,-2.9443 -25.66183,-9.84769 -35.12117,-19.81685 -1.87916,-2.27058 -4.05794,-4.00384 -6.24589,-4.96842 -0.26691,-0.11756 -0.53292,-0.22123 -0.79816,-0.3107 -0.13684,-0.0499 -0.27344,-0.0962 -0.40955,-0.13983 -0.16687,-0.0625 -0.3334,-0.1201 -0.49956,-0.17145 v 0 c -0.59344,-0.16199 -1.1507,-0.27617 -1.75554,-0.28825 z m 138.115405,12.60637 c -0.33557,-0.002 -0.67248,-0.002 -1.0099,0.001 -0.71989,0.005 -1.44424,0.0208 -2.172,0.0477 -3.31511,0.14757 -6.51445,0.32002 -9.9312,0.71521 l -0.0103,-0.0225 -6.14459,1.04361 -0.0176,0.0294 c -0.61626,0.0968 -1.08782,0.3719 -1.28863,0.81487 l -0.0103,0.006 v 0.0134 c -0.0125,0.0296 -0.0293,0.0577 -0.0385,0.0877 -0.15063,0.44463 -0.0219,0.96087 0.31089,1.46255 l 0.28519,1.10738 0.0789,-0.0134 c 1.07287,4.56933 1.2432,9.30421 0.5017,13.93876 l 0.0179,0.009 c -0.7004,4.27041 -2.1619,8.38084 -4.31458,12.13547 -2.77447,4.73282 -6.58922,8.77272 -11.15601,11.81508 -0.56282,0.14305 -1.04455,0.50691 -1.33635,1.0088 -0.43887,0.75617 -0.37819,1.70212 0.15331,2.39633 4.14338,13.10006 4.25866,27.14088 0.33074,40.30712 -1.0319,2.76029 -1.44797,5.51217 -1.19323,7.88867 0.0311,0.28975 0.0738,0.57216 0.12812,0.84647 0.025,0.14351 0.053,0.28521 0.0831,0.42484 0.029,0.17576 0.0624,0.34848 0.10071,0.51807 h 1e-5 c 0.49762,1.9037 1.68399,3.50308 3.38399,4.49532 0.9225,0.53509 1.95314,0.85773 3.01523,0.95575 l 0.039,-0.068 c 8.09509,1.54528 21.79065,-3.90556 34.73044,-13.82306 6.12116,-4.69625 11.65639,-10.08105 15.95246,-15.5181 l 0.0299,0.0172 c 2.22023,-2.78432 4.27546,-5.77838 6.12475,-8.92321 l 0.0107,-0.003 c 0.3561,-0.6094 0.70499,-1.22408 1.04473,-1.84346 6.42521,-11.77977 9.54761,-24.64234 8.59965,-35.42496 0.26947,-4.91324 -1.20427,-9.61549 -4.29365,-13.69818 -1.45367,-2.2899 -3.38094,-3.92305 -5.45095,-5.34452 h -2e-5 c -6.69364,-4.95985 -16.14771,-7.33317 -26.54992,-7.40442 z M 53.288885,241.1084 c 20.83376,21.42499 49.975995,34.73648 82.230255,34.73648 -30.9799,-5.8e-4 -60.641195,-12.5304 -82.230255,-34.73648 z m 82.230255,34.73648 c 31.04858,0 59.21389,-12.33488 79.85994,-32.36801 -21.39601,20.75733 -50.04142,32.36761 -79.85994,32.36801 z m 105.98052,-20.94454 c 0.4026,8e-5 0.80497,0.0203 1.20554,0.0605 -0.39648,-0.0393 -0.79873,-0.0605 -1.20554,-0.0605 z m 0,0 c -0.26035,0 -0.51781,0.0115 -0.77404,0.0278 0.25765,-0.0176 0.51578,-0.0268 0.77404,-0.0278 z m 1.20554,0.0605 c 2.00912,0.20149 3.93558,0.90327 5.60319,2.04115 -1.62631,-1.11182 -3.53792,-1.83658 -5.60319,-2.04115 z m -212.542595,-0.0278 c 0.40261,8e-5 0.80497,0.0204 1.20556,0.0605 -0.39647,-0.0393 -0.79874,-0.0605 -1.20556,-0.0605 z m 0,0 c -0.26034,0 -0.51777,0.0115 -0.77403,0.0278 0.25765,-0.0176 0.5158,-0.0268 0.77403,-0.0278 z m 1.20556,0.0605 c 2.0091,0.2015 3.93558,0.90328 5.60319,2.04116 -1.62634,-1.11183 -3.53789,-1.83661 -5.60319,-2.04116 z m 209.206285,-0.054 c -0.37092,0.028 -0.73701,0.072 -1.0978,0.13286 0.36371,-0.061 0.73004,-0.10536 1.0978,-0.13286 z m -211.337045,0.0326 c -0.3709,0.0282 -0.73701,0.072 -1.0978,0.13288 0.3637,-0.061 0.73002,-0.10536 1.0978,-0.13288 z m 210.172755,0.11198 c -0.38293,0.0668 -0.75978,0.15146 -1.1294,0.25342 0.37219,-0.10246 0.7491,-0.18704 1.1294,-0.25342 z m -211.337025,0.0325 c -0.38292,0.0668 -0.7598,0.15145 -1.12943,0.25339 0.3722,-0.10244 0.74912,-0.187 1.12943,-0.25338 z m 210.182935,0.2277 c -0.38249,0.10637 -0.75679,0.23079 -1.12298,0.37285 0.368,-0.14255 0.74278,-0.26699 1.12298,-0.37285 z m -211.337015,0.0326 c -0.38346,0.10663 -0.75915,0.23143 -1.12624,0.37393 0.36906,-0.14301 0.74493,-0.26782 1.12624,-0.37393 z m 210.194205,0.3482 c -0.36677,0.14304 -0.72484,0.30321 -1.07315,0.48 0.34971,-0.17731 0.70785,-0.33751 1.07315,-0.48 z m -211.333275,0.031 c -0.36826,0.14347 -0.72725,0.30411 -1.07693,0.48164 0.35091,-0.17798 0.71032,-0.33872 1.07693,-0.48164 z m 210.224195,0.46717 c -0.34013,0.1741 -0.67064,0.36395 -0.99113,0.56841 0.32123,-0.20499 0.65197,-0.39468 0.99113,-0.56841 z m -211.337015,0.0326 c -0.34014,0.1741 -0.67065,0.36394 -0.99112,0.5684 0.32121,-0.20499 0.65195,-0.39467 0.99112,-0.5684 z m 210.273005,0.58234 c -0.30876,0.20011 -0.60729,0.41407 -0.89573,0.64074 0.28868,-0.22709 0.58755,-0.4409 0.89573,-0.64074 z m -211.337065,0.0327 c -0.31062,0.20135 -0.61145,0.41675 -0.90158,0.645 0.29048,-0.22867 0.59134,-0.44391 0.90158,-0.645 z m 224.735855,0.15269 c 0.3151,0.21667 0.61972,0.44819 0.91287,0.69377 -0.2928,-0.24531 -0.59745,-0.47671 -0.91287,-0.69377 z m -211.337045,0.0326 c 0.31511,0.21667 0.61974,0.44818 0.91287,0.69377 -0.29279,-0.24531 -0.59743,-0.47669 -0.91287,-0.69377 z m 196.952475,0.49341 c -0.28164,0.22565 -0.55251,0.46407 -0.81264,0.7136 0.26008,-0.24988 0.53123,-0.48797 0.81264,-0.7136 z m -211.332215,0.0289 c -0.28349,0.22688 -0.55578,0.46628 -0.81749,0.71739 0.26157,-0.25131 0.53436,-0.49067 0.81749,-0.71741 z m 226.700925,0.20035 c 0.27849,0.23669 0.54605,0.4859 0.80193,0.74684 -0.25577,-0.26095 -0.52349,-0.50984 -0.80193,-0.74684 z m -211.337015,0.0326 c 0.27848,0.2367 0.54605,0.4859 0.80192,0.74686 -0.25579,-0.26097 -0.52349,-0.50986 -0.80192,-0.74686 z m 195.065605,0.53735 c -0.26108,0.25567 -0.51012,0.52321 -0.74722,0.80148 0.2368,-0.27833 0.48614,-0.54575 0.74722,-0.80148 z m -211.337045,0.0326 c -0.26109,0.25561 -0.51014,0.5232 -0.74726,0.80144 0.23682,-0.27831 0.48616,-0.54573 0.74726,-0.80144 z m 228.496135,0.23411 c 0.25003,0.25993 0.48826,0.53092 0.71402,0.81218 -0.2258,-0.28149 -0.46434,-0.55215 -0.71402,-0.81218 z m -211.337015,0.0326 c 0.25002,0.25995 0.48825,0.53095 0.71399,0.81219 -0.2258,-0.28147 -0.46432,-0.55217 -0.71399,-0.81219 z m 193.369075,0.57315 c -0.24548,0.29263 -0.47698,0.59711 -0.69418,0.91234 0.21681,-0.31492 0.44846,-0.61938 0.69418,-0.91234 z m -211.337075,0.0326 c -0.24543,0.29263 -0.47695,0.59709 -0.69416,0.91237 0.21679,-0.31494 0.44844,-0.61939 0.69416,-0.91237 z m 230.089785,0.26354 c 0.22845,0.29022 0.44343,0.59073 0.64429,0.90063 -0.20118,-0.31045 -0.41621,-0.61067 -0.64429,-0.90063 z m -211.337045,0.0326 c 0.22722,0.28851 0.44114,0.58722 0.64112,0.89521 -0.20025,-0.30859 -0.41431,-0.60691 -0.64112,-0.89521 z M 231.52668,260.164 c -1.11234,1.62527 -1.83756,3.53553 -2.04231,5.59945 0.2017,-2.00775 0.90388,-3.93295 2.04231,-5.59945 z m -2.04231,5.59945 c -0.0393,0.39646 -0.0607,0.79814 -0.0607,1.2049 8e-5,-0.40239 0.0203,-0.80452 0.0607,-1.2049 z m -0.0607,1.2049 c 0,0.26019 0.0117,0.51802 0.0277,0.77415 -0.0176,-0.25769 -0.0268,-0.51587 -0.0277,-0.77415 z m -209.234065,-6.772 c -1.11229,1.6253 -1.83758,3.53559 -2.04233,5.59951 0.2017,-2.00779 0.90388,-3.93299 2.04233,-5.59951 z m -2.04233,5.59951 c -0.0394,0.39644 -0.0601,0.79809 -0.0601,1.20487 -5e-5,-0.40238 0.02,-0.8045 0.0601,-1.20487 z m -0.0601,1.20487 c 0,0.26019 0.0114,0.51802 0.0281,0.77412 -0.0176,-0.25766 -0.0269,-0.51584 -0.0281,-0.77412 z m 233.593875,-6.51966 c 0.20512,0.32104 0.39491,0.6516 0.56873,0.99058 -0.17435,-0.33992 -0.36397,-0.6703 -0.56873,-0.99058 z m -211.334335,0.037 c 0.20408,0.31968 0.39298,0.64882 0.56606,0.98628 -0.17359,-0.3384 -0.36236,-0.66736 -0.56606,-0.98628 z m 211.925605,0.99754 c 0.17725,0.34951 0.33734,0.70745 0.47973,1.07256 -0.14297,-0.36655 -0.30296,-0.72445 -0.47973,-1.07256 z m -211.337045,0.0326 c 0.17725,0.3495 0.33736,0.70743 0.47978,1.07254 -0.143,-0.36656 -0.303,-0.72442 -0.47978,-1.07254 z m 211.822165,1.05269 c 0.14453,0.37231 0.27048,0.75154 0.37737,1.13632 -0.10742,-0.38713 -0.23338,-0.76587 -0.37737,-1.13632 z m -211.337045,0.0326 c 0.14451,0.37229 0.27047,0.75152 0.37736,1.13628 -0.10741,-0.38711 -0.23335,-0.76587 -0.37736,-1.13628 z m 211.716015,1.10842 c 0.10381,0.37584 0.18929,0.75647 0.25622,1.14058 -0.0675,-0.38679 -0.15284,-0.76738 -0.25622,-1.14058 z m -211.337035,0.0326 c 0.10374,0.37512 0.18925,0.75505 0.25624,1.13844 -0.0675,-0.38604 -0.15303,-0.76592 -0.25624,-1.13844 z m 211.604515,1.17059 c 0.0614,0.36385 0.10579,0.73032 0.13347,1.09825 -0.0282,-0.3711 -0.0725,-0.73732 -0.13347,-1.09825 z m -211.336505,0.0337 c 0.0611,0.36351 0.10541,0.72961 0.13294,1.09716 -0.0281,-0.37071 -0.0721,-0.73659 -0.13294,-1.09716 z m 211.481245,1.21451 c 0.0174,0.25786 0.0265,0.51621 0.0272,0.77468 0,-0.26055 -0.011,-0.51822 -0.0272,-0.77468 z m 0.0272,0.77468 c 1e-4,0.40254 -0.0199,0.80483 -0.06,1.20536 0.0393,-0.3964 0.06,-0.79862 0.06,-1.20536 z m -0.06,1.20536 c -0.20195,2.00999 -0.90547,3.93717 -2.04605,5.60489 1.11443,-1.62644 1.84108,-3.53862 2.04605,-5.60489 z M 42.211565,266.22653 c 0.0174,0.25787 0.0264,0.51625 0.0272,0.77469 0,-0.26057 -0.0111,-0.51823 -0.0272,-0.77469 z m 0.0272,0.77469 c 10e-5,0.40257 -0.0199,0.80485 -0.06,1.20541 0.0393,-0.39643 0.06,-0.79865 0.06,-1.20541 z m -0.06,1.20541 c -0.2017,2.00778 -0.90386,3.93297 -2.04229,5.59948 1.11232,-1.62528 1.83752,-3.53554 2.04229,-5.59948 z m 187.284525,-0.31288 c 0.0281,0.37069 0.0721,0.73661 0.13291,1.09718 -0.0612,-0.36349 -0.10541,-0.72961 -0.13291,-1.09718 z m -211.337075,0.0327 c 0.028,0.37071 0.0726,0.73659 0.13298,1.09718 -0.0611,-0.3635 -0.10544,-0.72961 -0.13298,-1.09718 z m 211.481775,1.13091 c 0.067,0.38274 0.15153,0.7594 0.25355,1.12882 -0.10248,-0.37201 -0.18714,-0.7487 -0.25355,-1.12882 z m -211.337075,0.0326 c 0.0663,0.38272 0.15156,0.75936 0.25362,1.12878 -0.10258,-0.37199 -0.18718,-0.74868 -0.25362,-1.12878 z m 211.597595,1.12074 c 0.10645,0.38228 0.23092,0.75639 0.37308,1.12236 -0.14265,-0.36779 -0.26715,-0.74237 -0.37308,-1.12236 z m -211.337025,0.0326 c 0.10643,0.3823 0.23091,0.75633 0.37301,1.12236 -0.14261,-0.3678 -0.2671,-0.74236 -0.37301,-1.12235 z m 211.718155,1.1095 c 0.14312,0.36653 0.30336,0.72442 0.48028,1.07254 -0.17742,-0.34952 -0.33771,-0.70746 -0.48028,-1.07254 z m -211.337045,0.0326 c 0.14314,0.36653 0.30341,0.72444 0.48027,1.07255 -0.17742,-0.34952 -0.33772,-0.70746 -0.48027,-1.07255 z m 211.835555,1.07566 c 0.175,0.34146 0.3658,0.67323 0.5714,0.99488 -0.20614,-0.32239 -0.39681,-0.65437 -0.5714,-0.99488 z m -211.337045,0.0326 c 0.175,0.34148 0.36586,0.67323 0.57145,0.99488 -0.20615,-0.32239 -0.39685,-0.65437 -0.57145,-0.99488 z m 211.949205,1.02538 c 0.20119,0.31046 0.41624,0.61066 0.64431,0.90057 -0.22845,-0.29019 -0.44345,-0.59069 -0.64431,-0.90057 z m -211.337095,0.0326 c 0.20124,0.31045 0.41627,0.61065 0.64437,0.90058 -0.22846,-0.29018 -0.44347,-0.59068 -0.64437,-0.90058 z m 231.435815,0.2411 c -0.21896,0.31874 -0.45313,0.62678 -0.70169,0.92305 0.24827,-0.29596 0.48235,-0.60396 0.70169,-0.92305 z m -211.344545,0.0434 c -0.2168,0.31494 -0.44845,0.6194 -0.69416,0.91235 0.24543,-0.29262 0.47696,-0.59709 0.69416,-0.91235 z m 191.960875,0.67344 c 0.22578,0.28146 0.46432,0.55216 0.71402,0.81216 -0.25002,-0.25993 -0.48828,-0.53093 -0.71402,-0.81216 z m -211.337025,0.0326 c 0.22582,0.28147 0.4643,0.55214 0.71397,0.81216 -0.25001,-0.25992 -0.48823,-0.53091 -0.71397,-0.81212 z m 229.957375,0.2448 c -0.23683,0.27833 -0.48615,0.54574 -0.74724,0.80146 0.2611,-0.25563 0.51013,-0.52317 0.74724,-0.80146 z m -211.337035,0.0326 c -0.23682,0.27833 -0.48616,0.54575 -0.74725,0.80147 0.26111,-0.25563 0.51011,-0.52318 0.74725,-0.80147 z m 193.516475,0.59198 c 0.25576,0.26094 0.52348,0.50984 0.80191,0.74684 -0.27848,-0.23669 -0.54606,-0.4859 -0.80191,-0.74684 z m -211.337065,0.0326 c 0.25518,0.26026 0.52207,0.50821 0.79976,0.74464 -0.2777,-0.23602 -0.54455,-0.4845 -0.79976,-0.74464 z m 228.320345,0.22979 c -0.26008,0.24988 -0.53124,0.48798 -0.81266,0.7136 0.28166,-0.22566 0.5525,-0.46406 0.81266,-0.7136 z m -211.337055,0.0326 c -0.26008,0.24988 -0.53121,0.48798 -0.81262,0.71359 0.28165,-0.22563 0.55246,-0.46407 0.81262,-0.71359 z m 195.226955,0.51324 c 0.29282,0.2453 0.59744,0.47669 0.91289,0.69376 -0.31512,-0.21666 -0.61975,-0.44819 -0.91289,-0.69376 z m -211.337045,0.0331 c 0.29304,0.2454 0.59831,0.47662 0.91396,0.69376 -0.31549,-0.21664 -0.62048,-0.44815 -0.91396,-0.69376 z m 226.544445,0.20517 c -0.29033,0.22831 -0.59101,0.44318 -0.90106,0.64396 0.3106,-0.20108 0.61097,-0.41599 0.90106,-0.64396 z m -211.337045,0.0326 c -0.29036,0.2283 -0.59103,0.44316 -0.90108,0.64393 0.31061,-0.2011 0.611,-0.416 0.90108,-0.64393 z m 197.073075,0.44465 c 1.62621,1.1117 3.53759,1.83649 5.60267,2.04113 -2.00891,-0.20157 -3.9352,-0.90335 -5.60267,-2.04113 z m 5.60267,2.04113 c 0.39664,0.0393 0.79855,0.0601 1.20556,0.0601 -0.4026,10e-5 -0.80493,-0.0199 -1.20556,-0.0601 z m 1.20556,0.0601 c 0.2607,0 0.51905,-0.011 0.77564,-0.0273 -0.25819,0.0174 -0.51687,0.0266 -0.77564,0.0273 z M 23.354185,276.96832 c 1.62634,1.11194 3.53787,1.83703 5.60319,2.0417 -2.00915,-0.20165 -3.93564,-0.90363 -5.60319,-2.0417 z m 5.60319,2.0417 c 0.39667,0.0393 0.79858,0.0601 1.20556,0.0601 -0.4026,9e-5 -0.80495,-0.0199 -1.20556,-0.0601 z m 1.20556,0.0601 c 0.2607,0 0.51904,-0.011 0.77565,-0.0273 -0.2582,0.0174 -0.51688,0.0266 -0.77565,0.0273 z m 217.828445,-1.92649 c -0.32121,0.20498 -0.65197,0.39467 -0.99112,0.56838 0.34008,-0.17427 0.67069,-0.36378 0.99112,-0.56838 z m -211.337005,0.0326 c -0.32124,0.20498 -0.65199,0.39467 -0.99117,0.56839 0.34013,-0.17426 0.67071,-0.36375 0.99117,-0.56839 z m 210.301915,0.55824 c -0.34971,0.17714 -0.70785,0.33716 -1.07313,0.4795 0.36674,-0.14292 0.72481,-0.30283 1.07313,-0.4795 z m -211.337025,0.0326 c -0.34971,0.17715 -0.70785,0.33715 -1.07314,0.47949 0.36674,-0.14293 0.72484,-0.30282 1.07314,-0.47949 z m 210.251015,0.45215 c -0.36902,0.1432 -0.74488,0.26818 -1.12619,0.37448 0.38361,-0.10671 0.75898,-0.23186 1.12619,-0.37448 z m -211.337025,0.0326 c -0.36904,0.1432 -0.74489,0.26817 -1.12622,0.3745 0.38366,-0.10675 0.759,-0.2319 1.12622,-0.3745 z m 210.186165,0.34878 c -0.37309,0.10252 -0.75089,0.18709 -1.13212,0.25339 0.38385,-0.0669 0.76166,-0.15122 1.13212,-0.25339 z m -211.337025,0.0325 c -0.37309,0.10253 -0.7509,0.18712 -1.1321,0.25341 0.38381,-0.0669 0.76162,-0.15124 1.1321,-0.25341 z m 210.142205,0.23197 c -0.36407,0.0613 -0.73075,0.10575 -1.09888,0.1334 0.3713,-0.0282 0.73772,-0.0725 1.09888,-0.1334 z m -211.337025,0.0326 c -0.36407,0.0614 -0.73075,0.10574 -1.09888,0.13338 0.37128,-0.0281 0.7377,-0.0725 1.09888,-0.13338 z"
       id="path1266-5-3"
       inkscape:connector-curvature="0"
       sodipodi:nodetypes="ccccccccccccccccccccccccccccccccccccccccccccccccccccccccccccccccccccccccccccccccccccccccccccccccccccccccccccccccccccccccccccccccccccccccccccccccccccccccccccccccccccccccccccccccccccccccccccccccccccccccccccccccccccccccccccccccccccccccccccccccccccccccccccccccccccccccccccccccccccccccccccccccccccccccccccccccccccccccccccccccccccccccccccccccccccccccccccccccccccccccccccccccccccccccccccccccccccccccccccccccccccccccccccccccccccccccccccccccccccccccccccccccccccccccccccccccccccccccccccccccccccccccccccccccccccccccccccccccccccccccccccccccccccccccccccccccccccccccccccccccccccccccccccccccccccccccccccccccccccccccccccccccccccccccccccccccccccccccccccccccccccccccccccccccccccccccccccccccccccccccccccccccccccccccccccccccccccccccccccccccccccccccc"
       inkscape:export-filename="/media/nfs/HQ505/NAS/AppKidDemoIcon3.png"
       inkscape:export-xdpi="96"
       inkscape:export-ydpi="96" />
    <path
       style="opacity:1;fill:url(#linearGradient866);fill-opacity:1;stroke:#fc00ff;stroke-width:1.46369505;stroke-linecap:round;stroke-linejoin:miter;stroke-miterlimit:4;stroke-dasharray:none;stroke-opacity:0;paint-order:normal"
       d="m 20.932692,25.908579 c -11.4034143,0 -20.58388921,9.175196 -20.58388921,20.572216 V 276.27253 c 0,11.397 9.18047491,20.57221 20.58388921,20.57221 H 250.69762 c 11.40341,0 20.58379,-9.17521 20.58379,-20.57221 V 46.480795 c 0,-11.39702 -9.18038,-20.572216 -20.58379,-20.572216 z M 241.76298,43.808006 c 6.66928,5e-5 12.07577,5.403531 12.07577,12.069046 1e-5,6.665516 -5.40649,12.069006 -12.07577,12.069047 -6.66931,2e-5 -12.07589,-5.40349 -12.07588,-12.069047 0,-6.665555 5.40657,-12.069067 12.07588,-12.069046 z m -211.337072,0.03268 c 6.669288,4.1e-5 12.075796,5.403501 12.075796,12.069028 0,6.665515 -5.406508,12.068996 -12.075796,12.069037 -6.669319,2e-5 -12.075876,-5.403482 -12.075876,-12.069037 0,-6.665566 5.406557,-12.069049 12.075876,-12.069028 z m 105.389252,2.94223 c 63.32406,5.1e-5 114.65835,51.305382 114.65841,114.593724 -6e-5,63.28832 -51.33435,114.59367 -114.65841,114.59371 C 72.491087,275.97031 21.156796,224.66496 21.156746,161.37664 21.156796,98.088293 72.491087,46.782962 135.81516,46.782911 Z m 105.9805,208.242874 c 6.66927,3e-5 12.07577,5.40352 12.07577,12.06904 0,6.66552 -5.4065,12.06899 -12.07577,12.06902 -6.66934,2e-5 -12.07589,-5.40346 -12.07589,-12.06902 0,-6.66556 5.40655,-12.06906 12.07589,-12.06904 z m -211.337067,0.0327 c 6.669338,-2e-5 12.075885,5.40349 12.075875,12.06904 0,6.66557 -5.406547,12.06908 -12.075875,12.06906 -6.669319,2e-5 -12.075887,-5.40349 -12.075887,-12.06906 0,-6.66554 5.406568,-12.06904 12.075887,-12.06902 z"
       id="path1266-8"
       inkscape:connector-curvature="0"
       sodipodi:nodetypes="sssssssssccccccscscccccccscsccccscc"
       inkscape:export-filename="/media/nfs/HQ505/NAS/AppKidDemoIcon3.png"
       inkscape:export-xdpi="96"
       inkscape:export-ydpi="96" />
  </g>
</svg>
